<?xml version="1.0" encoding="UTF-8"?>
<svg xmlns="http://www.w3.org/2000/svg" xmlns:xlink="http://www.w3.org/1999/xlink" width="151.719pt" height="148.398pt" viewBox="0 0 151.719 148.398" version="1.1">
<g id="surface1">
<path style="fill-rule:nonzero;fill:rgb(100%,0%,0%);fill-opacity:1;stroke-width:0.3985;stroke-linecap:butt;stroke-linejoin:miter;stroke:rgb(100%,0%,0%);stroke-opacity:1;stroke-miterlimit:10;" d="M 62.999531 -36.000219 L 62.999531 -180.004125 L 80.999531 -180.004125 L 80.999531 -36.000219 Z M 62.999531 -36.000219 " transform="matrix(1,0,0,-1,-30.48,-33.801)"/>
<path style="fill-rule:nonzero;fill:rgb(100%,0%,0%);fill-opacity:1;stroke-width:0.3985;stroke-linecap:butt;stroke-linejoin:miter;stroke:rgb(100%,0%,0%);stroke-opacity:1;stroke-miterlimit:10;" d="M 98.999531 -36.000219 L 98.999531 -180.004125 L 117.003437 -180.004125 L 117.003437 -36.000219 Z M 98.999531 -36.000219 " transform="matrix(1,0,0,-1,-30.48,-33.801)"/>
<path style="fill-rule:nonzero;fill:rgb(100%,0%,0%);fill-opacity:1;stroke-width:0.3985;stroke-linecap:butt;stroke-linejoin:miter;stroke:rgb(100%,0%,0%);stroke-opacity:1;stroke-miterlimit:10;" d="M 135.003437 -36.000219 L 135.003437 -180.004125 L 153.003437 -180.004125 L 153.003437 -36.000219 Z M 135.003437 -36.000219 " transform="matrix(1,0,0,-1,-30.48,-33.801)"/>
<path style="fill-rule:nonzero;fill:rgb(100%,0%,0%);fill-opacity:1;stroke-width:0.3985;stroke-linecap:butt;stroke-linejoin:miter;stroke:rgb(100%,0%,0%);stroke-opacity:1;stroke-miterlimit:10;" d="M 35.999531 -153.000219 L 35.999531 -135.000219 L 180.003437 -135.000219 L 180.003437 -153.000219 Z M 35.999531 -153.000219 " transform="matrix(1,0,0,-1,-30.48,-33.801)"/>
<path style="fill-rule:nonzero;fill:rgb(100%,0%,0%);fill-opacity:1;stroke-width:0.3985;stroke-linecap:butt;stroke-linejoin:miter;stroke:rgb(100%,0%,0%);stroke-opacity:1;stroke-miterlimit:10;" d="M 35.999531 -117.000219 L 35.999531 -99.000219 L 180.003437 -99.000219 L 180.003437 -117.000219 Z M 35.999531 -117.000219 " transform="matrix(1,0,0,-1,-30.48,-33.801)"/>
<path style="fill-rule:nonzero;fill:rgb(100%,0%,0%);fill-opacity:1;stroke-width:0.3985;stroke-linecap:butt;stroke-linejoin:miter;stroke:rgb(100%,0%,0%);stroke-opacity:1;stroke-miterlimit:10;" d="M 35.999531 -81.000219 L 35.999531 -63.000219 L 180.003437 -63.000219 L 180.003437 -81.000219 Z M 35.999531 -81.000219 " transform="matrix(1,0,0,-1,-30.48,-33.801)"/>
<path style="fill:none;stroke-width:0.3985;stroke-linecap:butt;stroke-linejoin:miter;stroke:rgb(0%,0%,0%);stroke-opacity:1;stroke-miterlimit:10;" d="M 73.800312 -44.101781 C 73.800312 -41.6135 71.784687 -39.601781 69.300312 -39.601781 C 66.815937 -39.601781 64.800312 -41.6135 64.800312 -44.101781 C 64.800312 -46.586156 66.815937 -48.601781 69.300312 -48.601781 C 71.784687 -48.601781 73.800312 -46.586156 73.800312 -44.101781 Z M 73.800312 -44.101781 " transform="matrix(1,0,0,-1,-30.48,-33.801)"/>
<path style="fill:none;stroke-width:0.3985;stroke-linecap:butt;stroke-linejoin:miter;stroke:rgb(0%,0%,0%);stroke-opacity:1;stroke-miterlimit:10;" d="M 70.202656 -44.101781 C 70.202656 -43.601781 69.796406 -43.199437 69.300312 -43.199437 C 68.804219 -43.199437 68.401875 -43.601781 68.401875 -44.101781 C 68.401875 -44.597875 68.804219 -45.000219 69.300312 -45.000219 C 69.796406 -45.000219 70.202656 -44.597875 70.202656 -44.101781 Z M 70.202656 -44.101781 " transform="matrix(1,0,0,-1,-30.48,-33.801)"/>
<path style="fill:none;stroke-width:0.3985;stroke-linecap:butt;stroke-linejoin:miter;stroke:rgb(0%,0%,0%);stroke-opacity:1;stroke-miterlimit:10;" d="M 54.901875 -59.402562 C 54.901875 -56.914281 52.88625 -54.902562 50.401875 -54.902562 C 47.913594 -54.902562 45.901875 -56.914281 45.901875 -59.402562 C 45.901875 -61.886937 47.913594 -63.902562 50.401875 -63.902562 C 52.88625 -63.902562 54.901875 -61.886937 54.901875 -59.402562 Z M 54.901875 -59.402562 " transform="matrix(1,0,0,-1,-30.48,-33.801)"/>
<path style="fill:none;stroke-width:0.3985;stroke-linecap:butt;stroke-linejoin:miter;stroke:rgb(0%,0%,0%);stroke-opacity:1;stroke-miterlimit:10;" d="M 51.300312 -59.402562 C 51.300312 -58.902562 50.897969 -58.500219 50.401875 -58.500219 C 49.901875 -58.500219 49.499531 -58.902562 49.499531 -59.402562 C 49.499531 -59.898656 49.901875 -60.301 50.401875 -60.301 C 50.897969 -60.301 51.300312 -59.898656 51.300312 -59.402562 Z M 51.300312 -59.402562 " transform="matrix(1,0,0,-1,-30.48,-33.801)"/>
<path style="fill:none;stroke-width:0.3985;stroke-linecap:butt;stroke-linejoin:miter;stroke:rgb(0%,0%,0%);stroke-opacity:1;stroke-miterlimit:10;" d="M 98.999531 -87.301 C 98.999531 -84.816625 96.987812 -82.801 94.499531 -82.801 C 92.015156 -82.801 89.999531 -84.816625 89.999531 -87.301 C 89.999531 -89.785375 92.015156 -91.801 94.499531 -91.801 C 96.987812 -91.801 98.999531 -89.785375 98.999531 -87.301 Z M 98.999531 -87.301 " transform="matrix(1,0,0,-1,-30.48,-33.801)"/>
<path style="fill:none;stroke-width:0.3985;stroke-linecap:butt;stroke-linejoin:miter;stroke:rgb(0%,0%,0%);stroke-opacity:1;stroke-miterlimit:10;" d="M 95.401875 -87.301 C 95.401875 -86.804906 94.999531 -86.402562 94.499531 -86.402562 C 94.003437 -86.402562 93.601094 -86.804906 93.601094 -87.301 C 93.601094 -87.797094 94.003437 -88.199437 94.499531 -88.199437 C 94.999531 -88.199437 95.401875 -87.797094 95.401875 -87.301 Z M 95.401875 -87.301 " transform="matrix(1,0,0,-1,-30.48,-33.801)"/>
<path style="fill:none;stroke-width:0.3985;stroke-linecap:butt;stroke-linejoin:miter;stroke:rgb(0%,0%,0%);stroke-opacity:1;stroke-miterlimit:10;" d="M 90.901875 -68.402562 C 90.901875 -65.914281 88.88625 -63.898656 86.401875 -63.898656 C 83.9175 -63.898656 81.901875 -65.914281 81.901875 -68.402562 C 81.901875 -70.886937 83.9175 -72.902562 86.401875 -72.902562 C 88.88625 -72.902562 90.901875 -70.886937 90.901875 -68.402562 Z M 90.901875 -68.402562 " transform="matrix(1,0,0,-1,-30.48,-33.801)"/>
<path style="fill:none;stroke-width:0.3985;stroke-linecap:butt;stroke-linejoin:miter;stroke:rgb(0%,0%,0%);stroke-opacity:1;stroke-miterlimit:10;" d="M 87.300312 -68.402562 C 87.300312 -67.902562 86.897969 -67.500219 86.401875 -67.500219 C 85.905781 -67.500219 85.499531 -67.902562 85.499531 -68.402562 C 85.499531 -68.898656 85.905781 -69.301 86.401875 -69.301 C 86.897969 -69.301 87.300312 -68.898656 87.300312 -68.402562 Z M 87.300312 -68.402562 " transform="matrix(1,0,0,-1,-30.48,-33.801)"/>
<path style="fill:none;stroke-width:0.3985;stroke-linecap:butt;stroke-linejoin:miter;stroke:rgb(0%,0%,0%);stroke-opacity:1;stroke-miterlimit:10;" d="M 62.999531 -98.101781 C 62.999531 -95.617406 60.987812 -93.601781 58.499531 -93.601781 C 56.015156 -93.601781 53.999531 -95.617406 53.999531 -98.101781 C 53.999531 -100.586156 56.015156 -102.601781 58.499531 -102.601781 C 60.987812 -102.601781 62.999531 -100.586156 62.999531 -98.101781 Z M 62.999531 -98.101781 " transform="matrix(1,0,0,-1,-30.48,-33.801)"/>
<path style="fill:none;stroke-width:0.3985;stroke-linecap:butt;stroke-linejoin:miter;stroke:rgb(0%,0%,0%);stroke-opacity:1;stroke-miterlimit:10;" d="M 59.401875 -98.101781 C 59.401875 -97.605687 58.999531 -97.199437 58.499531 -97.199437 C 58.003437 -97.199437 57.601094 -97.605687 57.601094 -98.101781 C 57.601094 -98.597875 58.003437 -99.000219 58.499531 -99.000219 C 58.999531 -99.000219 59.401875 -98.597875 59.401875 -98.101781 Z M 59.401875 -98.101781 " transform="matrix(1,0,0,-1,-30.48,-33.801)"/>
<path style="fill:none;stroke-width:0.3985;stroke-linecap:butt;stroke-linejoin:miter;stroke:rgb(0%,0%,0%);stroke-opacity:1;stroke-miterlimit:10;" d="M 104.401875 -121.500219 C 104.401875 -119.015844 102.38625 -117.000219 99.901875 -117.000219 C 97.4175 -117.000219 95.401875 -119.015844 95.401875 -121.500219 C 95.401875 -123.9885 97.4175 -126.000219 99.901875 -126.000219 C 102.38625 -126.000219 104.401875 -123.9885 104.401875 -121.500219 Z M 104.401875 -121.500219 " transform="matrix(1,0,0,-1,-30.48,-33.801)"/>
<path style="fill:none;stroke-width:0.3985;stroke-linecap:butt;stroke-linejoin:miter;stroke:rgb(0%,0%,0%);stroke-opacity:1;stroke-miterlimit:10;" d="M 100.800312 -121.500219 C 100.800312 -121.004125 100.397969 -120.601781 99.901875 -120.601781 C 99.405781 -120.601781 98.999531 -121.004125 98.999531 -121.500219 C 98.999531 -122.000219 99.405781 -122.402562 99.901875 -122.402562 C 100.397969 -122.402562 100.800312 -122.000219 100.800312 -121.500219 Z M 100.800312 -121.500219 " transform="matrix(1,0,0,-1,-30.48,-33.801)"/>
<path style="fill:none;stroke-width:0.3985;stroke-linecap:butt;stroke-linejoin:miter;stroke:rgb(0%,0%,0%);stroke-opacity:1;stroke-miterlimit:10;" d="M 130.503437 -124.203344 C 130.503437 -121.715062 128.487812 -119.703344 126.003437 -119.703344 C 123.515156 -119.703344 121.503437 -121.715062 121.503437 -124.203344 C 121.503437 -126.687719 123.515156 -128.703344 126.003437 -128.703344 C 128.487812 -128.703344 130.503437 -126.687719 130.503437 -124.203344 Z M 130.503437 -124.203344 " transform="matrix(1,0,0,-1,-30.48,-33.801)"/>
<path style="fill:none;stroke-width:0.3985;stroke-linecap:butt;stroke-linejoin:miter;stroke:rgb(0%,0%,0%);stroke-opacity:1;stroke-miterlimit:10;" d="M 126.901875 -124.203344 C 126.901875 -123.703344 126.499531 -123.301 126.003437 -123.301 C 125.503437 -123.301 125.101094 -123.703344 125.101094 -124.203344 C 125.101094 -124.699437 125.503437 -125.101781 126.003437 -125.101781 C 126.499531 -125.101781 126.901875 -124.699437 126.901875 -124.203344 Z M 126.901875 -124.203344 " transform="matrix(1,0,0,-1,-30.48,-33.801)"/>
<path style="fill:none;stroke-width:0.3985;stroke-linecap:butt;stroke-linejoin:miter;stroke:rgb(0%,0%,0%);stroke-opacity:1;stroke-miterlimit:10;" d="M 134.101094 -80.101781 C 134.101094 -77.617406 132.085469 -75.601781 129.601094 -75.601781 C 127.116719 -75.601781 125.101094 -77.617406 125.101094 -80.101781 C 125.101094 -82.586156 127.116719 -84.601781 129.601094 -84.601781 C 132.085469 -84.601781 134.101094 -82.586156 134.101094 -80.101781 Z M 134.101094 -80.101781 " transform="matrix(1,0,0,-1,-30.48,-33.801)"/>
<path style="fill:none;stroke-width:0.3985;stroke-linecap:butt;stroke-linejoin:miter;stroke:rgb(0%,0%,0%);stroke-opacity:1;stroke-miterlimit:10;" d="M 130.503437 -80.101781 C 130.503437 -79.601781 130.097187 -79.199437 129.601094 -79.199437 C 129.105 -79.199437 128.702656 -79.601781 128.702656 -80.101781 C 128.702656 -80.597875 129.105 -81.000219 129.601094 -81.000219 C 130.097187 -81.000219 130.503437 -80.597875 130.503437 -80.101781 Z M 130.503437 -80.101781 " transform="matrix(1,0,0,-1,-30.48,-33.801)"/>
<path style="fill:none;stroke-width:0.3985;stroke-linecap:butt;stroke-linejoin:miter;stroke:rgb(0%,0%,0%);stroke-opacity:1;stroke-miterlimit:10;" d="M 167.401875 -50.402562 C 167.401875 -47.914281 165.38625 -45.898656 162.901875 -45.898656 C 160.4175 -45.898656 158.401875 -47.914281 158.401875 -50.402562 C 158.401875 -52.886937 160.4175 -54.902562 162.901875 -54.902562 C 165.38625 -54.902562 167.401875 -52.886937 167.401875 -50.402562 Z M 167.401875 -50.402562 " transform="matrix(1,0,0,-1,-30.48,-33.801)"/>
<path style="fill:none;stroke-width:0.3985;stroke-linecap:butt;stroke-linejoin:miter;stroke:rgb(0%,0%,0%);stroke-opacity:1;stroke-miterlimit:10;" d="M 163.800312 -50.402562 C 163.800312 -49.902562 163.397969 -49.500219 162.901875 -49.500219 C 162.405781 -49.500219 162.003437 -49.902562 162.003437 -50.402562 C 162.003437 -50.898656 162.405781 -51.301 162.901875 -51.301 C 163.397969 -51.301 163.800312 -50.898656 163.800312 -50.402562 Z M 163.800312 -50.402562 " transform="matrix(1,0,0,-1,-30.48,-33.801)"/>
<path style="fill:none;stroke-width:0.3985;stroke-linecap:butt;stroke-linejoin:miter;stroke:rgb(0%,0%,0%);stroke-opacity:1;stroke-miterlimit:10;" d="M 75.601094 -153.902562 C 75.601094 -151.418187 73.585469 -149.402562 71.101094 -149.402562 C 68.616719 -149.402562 66.601094 -151.418187 66.601094 -153.902562 C 66.601094 -156.386937 68.616719 -158.402562 71.101094 -158.402562 C 73.585469 -158.402562 75.601094 -156.386937 75.601094 -153.902562 Z M 75.601094 -153.902562 " transform="matrix(1,0,0,-1,-30.48,-33.801)"/>
<path style="fill:none;stroke-width:0.3985;stroke-linecap:butt;stroke-linejoin:miter;stroke:rgb(0%,0%,0%);stroke-opacity:1;stroke-miterlimit:10;" d="M 71.999531 -153.902562 C 71.999531 -153.406469 71.597187 -153.000219 71.101094 -153.000219 C 70.605 -153.000219 70.202656 -153.406469 70.202656 -153.902562 C 70.202656 -154.398656 70.605 -154.801 71.101094 -154.801 C 71.597187 -154.801 71.999531 -154.398656 71.999531 -153.902562 Z M 71.999531 -153.902562 " transform="matrix(1,0,0,-1,-30.48,-33.801)"/>
<path style="fill:none;stroke-width:0.3985;stroke-linecap:butt;stroke-linejoin:miter;stroke:rgb(0%,0%,0%);stroke-opacity:1;stroke-miterlimit:10;" d="M 151.202656 -159.301 C 151.202656 -156.816625 149.187031 -154.801 146.702656 -154.801 C 144.218281 -154.801 142.202656 -156.816625 142.202656 -159.301 C 142.202656 -161.789281 144.218281 -163.801 146.702656 -163.801 C 149.187031 -163.801 151.202656 -161.789281 151.202656 -159.301 Z M 151.202656 -159.301 " transform="matrix(1,0,0,-1,-30.48,-33.801)"/>
<path style="fill:none;stroke-width:0.3985;stroke-linecap:butt;stroke-linejoin:miter;stroke:rgb(0%,0%,0%);stroke-opacity:1;stroke-miterlimit:10;" d="M 147.601094 -159.301 C 147.601094 -158.804906 147.19875 -158.402562 146.702656 -158.402562 C 146.202656 -158.402562 145.800312 -158.804906 145.800312 -159.301 C 145.800312 -159.801 146.202656 -160.203344 146.702656 -160.203344 C 147.19875 -160.203344 147.601094 -159.801 147.601094 -159.301 Z M 147.601094 -159.301 " transform="matrix(1,0,0,-1,-30.48,-33.801)"/>
<path style="fill:none;stroke-width:0.3985;stroke-linecap:butt;stroke-linejoin:miter;stroke:rgb(0%,0%,0%);stroke-opacity:1;stroke-miterlimit:10;" d="M 35.999531 -36.000219 L 35.999531 -180.004125 " transform="matrix(1,0,0,-1,-30.48,-33.801)"/>
<path style="fill:none;stroke-width:0.3985;stroke-linecap:butt;stroke-linejoin:miter;stroke:rgb(0%,0%,0%);stroke-opacity:1;stroke-miterlimit:10;" d="M 71.999531 -36.000219 L 71.999531 -180.004125 " transform="matrix(1,0,0,-1,-30.48,-33.801)"/>
<path style="fill:none;stroke-width:0.3985;stroke-linecap:butt;stroke-linejoin:miter;stroke:rgb(0%,0%,0%);stroke-opacity:1;stroke-miterlimit:10;" d="M 107.999531 -36.000219 L 107.999531 -180.004125 " transform="matrix(1,0,0,-1,-30.48,-33.801)"/>
<path style="fill:none;stroke-width:0.3985;stroke-linecap:butt;stroke-linejoin:miter;stroke:rgb(0%,0%,0%);stroke-opacity:1;stroke-miterlimit:10;" d="M 144.003437 -36.000219 L 144.003437 -180.004125 " transform="matrix(1,0,0,-1,-30.48,-33.801)"/>
<path style="fill:none;stroke-width:0.3985;stroke-linecap:butt;stroke-linejoin:miter;stroke:rgb(0%,0%,0%);stroke-opacity:1;stroke-miterlimit:10;" d="M 180.003437 -36.000219 L 180.003437 -180.004125 " transform="matrix(1,0,0,-1,-30.48,-33.801)"/>
<path style="fill:none;stroke-width:0.3985;stroke-linecap:butt;stroke-linejoin:miter;stroke:rgb(0%,0%,0%);stroke-opacity:1;stroke-miterlimit:10;" d="M 35.999531 -36.000219 L 180.003437 -36.000219 " transform="matrix(1,0,0,-1,-30.48,-33.801)"/>
<path style="fill:none;stroke-width:0.3985;stroke-linecap:butt;stroke-linejoin:miter;stroke:rgb(0%,0%,0%);stroke-opacity:1;stroke-miterlimit:10;" d="M 35.999531 -72.000219 L 180.003437 -72.000219 " transform="matrix(1,0,0,-1,-30.48,-33.801)"/>
<path style="fill:none;stroke-width:0.3985;stroke-linecap:butt;stroke-linejoin:miter;stroke:rgb(0%,0%,0%);stroke-opacity:1;stroke-miterlimit:10;" d="M 35.999531 -108.000219 L 180.003437 -108.000219 " transform="matrix(1,0,0,-1,-30.48,-33.801)"/>
<path style="fill:none;stroke-width:0.3985;stroke-linecap:butt;stroke-linejoin:miter;stroke:rgb(0%,0%,0%);stroke-opacity:1;stroke-miterlimit:10;" d="M 35.999531 -144.000219 L 180.003437 -144.000219 " transform="matrix(1,0,0,-1,-30.48,-33.801)"/>
<path style="fill:none;stroke-width:0.3985;stroke-linecap:butt;stroke-linejoin:miter;stroke:rgb(0%,0%,0%);stroke-opacity:1;stroke-miterlimit:10;" d="M 35.999531 -180.004125 L 180.003437 -180.004125 " transform="matrix(1,0,0,-1,-30.48,-33.801)"/>
</g>
</svg>

