<?xml version="1.0" encoding="UTF-8"?>
<svg xmlns="http://www.w3.org/2000/svg" xmlns:xlink="http://www.w3.org/1999/xlink" width="115.719pt" height="116.898pt" viewBox="0 0 115.719 116.898" version="1.1">
<g id="surface1">
<path style="fill-rule:nonzero;fill:rgb(0%,0%,0%);fill-opacity:1;stroke-width:0.3985;stroke-linecap:butt;stroke-linejoin:miter;stroke:rgb(0%,0%,0%);stroke-opacity:1;stroke-miterlimit:10;" d="M 126.003438 -112.500219 C 126.003438 -111.508031 125.194844 -110.699437 124.202656 -110.699437 C 123.206563 -110.699437 122.401875 -111.508031 122.401875 -112.500219 C 122.401875 -113.496312 123.206563 -114.301 124.202656 -114.301 C 125.194844 -114.301 126.003438 -113.496312 126.003438 -112.500219 Z M 126.003438 -112.500219 " transform="matrix(1,0,0,-1,-84.48,-87.801)"/>
<path style="fill-rule:nonzero;fill:rgb(0%,0%,0%);fill-opacity:1;stroke-width:0.3985;stroke-linecap:butt;stroke-linejoin:miter;stroke:rgb(0%,0%,0%);stroke-opacity:1;stroke-miterlimit:10;" d="M 171.003438 -171.000219 C 171.003438 -170.008031 170.194844 -169.203344 169.202656 -169.203344 C 168.206563 -169.203344 167.401875 -170.008031 167.401875 -171.000219 C 167.401875 -171.996312 168.206563 -172.801 169.202656 -172.801 C 170.194844 -172.801 171.003438 -171.996312 171.003438 -171.000219 Z M 171.003438 -171.000219 " transform="matrix(1,0,0,-1,-84.48,-87.801)"/>
<path style="fill-rule:nonzero;fill:rgb(0%,0%,0%);fill-opacity:1;stroke-width:0.3985;stroke-linecap:butt;stroke-linejoin:miter;stroke:rgb(0%,0%,0%);stroke-opacity:1;stroke-miterlimit:10;" d="M 121.503438 -121.500219 C 121.503438 -120.508031 120.694844 -119.703344 119.702656 -119.703344 C 118.706563 -119.703344 117.901875 -120.508031 117.901875 -121.500219 C 117.901875 -122.496312 118.706563 -123.301 119.702656 -123.301 C 120.694844 -123.301 121.503438 -122.496312 121.503438 -121.500219 Z M 121.503438 -121.500219 " transform="matrix(1,0,0,-1,-84.48,-87.801)"/>
<path style="fill:none;stroke-width:0.3985;stroke-linecap:butt;stroke-linejoin:miter;stroke:rgb(0%,0%,0%);stroke-opacity:1;stroke-miterlimit:10;" d="M 107.999531 -90.000219 L 107.999531 -202.504125 " transform="matrix(1,0,0,-1,-84.48,-87.801)"/>
<path style="fill:none;stroke-width:0.3985;stroke-linecap:butt;stroke-linejoin:miter;stroke:rgb(0%,0%,0%);stroke-opacity:1;stroke-miterlimit:10;" d="M 180.003438 -90.000219 L 180.003438 -202.504125 " transform="matrix(1,0,0,-1,-84.48,-87.801)"/>
<path style="fill:none;stroke-width:0.3985;stroke-linecap:butt;stroke-linejoin:miter;stroke:rgb(0%,0%,0%);stroke-opacity:1;stroke-miterlimit:10;" d="M 89.999531 -180.004125 L 198.003438 -180.004125 " transform="matrix(1,0,0,-1,-84.48,-87.801)"/>
<path style="fill:none;stroke-width:0.3985;stroke-linecap:butt;stroke-linejoin:miter;stroke:rgb(0%,0%,0%);stroke-opacity:1;stroke-miterlimit:10;" d="M 117.003438 -121.500219 L 108.257344 -108.383031 " transform="matrix(1,0,0,-1,-84.48,-87.801)"/>
<path style="fill:none;stroke-width:0.31879;stroke-linecap:round;stroke-linejoin:round;stroke:rgb(0%,0%,0%);stroke-opacity:1;stroke-miterlimit:10;" d="M -1.195746 1.596133 C -1.095281 0.995596 0.00212972 0.100214 0.300242 -0.000228251 C -0.0000255176 -0.0996056 -1.095232 -0.998282 -1.197827 -1.594503 " transform="matrix(-0.55637,-0.8346,-0.8346,0.55637,23.77623,20.58274)"/>
<path style="fill:none;stroke-width:0.59776;stroke-linecap:butt;stroke-linejoin:miter;stroke:rgb(0%,0%,0%);stroke-opacity:1;stroke-miterlimit:10;" d="M 107.999531 -108.000219 L 107.999531 -180.004125 L 180.003438 -180.004125 L 180.003438 -108.000219 Z M 107.999531 -108.000219 " transform="matrix(1,0,0,-1,-84.48,-87.801)"/>
<path style="fill:none;stroke-width:0.3985;stroke-linecap:butt;stroke-linejoin:miter;stroke:rgb(0%,0%,0%);stroke-opacity:1;stroke-miterlimit:10;" d="M 89.999531 -108.000219 L 198.003438 -108.000219 " transform="matrix(1,0,0,-1,-84.48,-87.801)"/>
<path style="fill:none;stroke-width:0.3985;stroke-linecap:butt;stroke-linejoin:miter;stroke:rgb(0%,0%,0%);stroke-opacity:1;stroke-miterlimit:10;" d="M 121.503438 -112.500219 L 108.437031 -108.14475 " transform="matrix(1,0,0,-1,-84.48,-87.801)"/>
<path style="fill:none;stroke-width:0.31879;stroke-linecap:round;stroke-linejoin:round;stroke:rgb(0%,0%,0%);stroke-opacity:1;stroke-miterlimit:10;" d="M -1.194558 1.595244 C -1.097087 0.994261 -0.00128259 0.100776 0.299821 -0.000424901 C -0.0000549022 -0.100373 -1.095916 -0.996256 -1.197127 -1.593531 " transform="matrix(-0.94963,-0.31651,-0.31651,0.94963,23.95646,20.3453)"/>
<path style="fill:none;stroke-width:0.3985;stroke-linecap:butt;stroke-linejoin:miter;stroke:rgb(0%,0%,0%);stroke-opacity:1;stroke-miterlimit:10;" d="M 166.503438 -171.000219 L 179.620625 -179.746312 " transform="matrix(1,0,0,-1,-84.48,-87.801)"/>
<path style="fill:none;stroke-width:0.31879;stroke-linecap:round;stroke-linejoin:round;stroke:rgb(0%,0%,0%);stroke-opacity:1;stroke-miterlimit:10;" d="M -1.197825 1.594487 C -1.09523 0.998274 -0.000036507 0.0996135 0.300227 0.00023841 C 0.00211926 -0.100204 -1.095274 -0.995576 -1.195736 -1.596105 " transform="matrix(0.83461,0.55638,0.55638,-0.83461,95.13992,91.94644)"/>
<path style="fill:none;stroke-width:0.3985;stroke-linecap:butt;stroke-linejoin:miter;stroke:rgb(0%,0%,0%);stroke-opacity:1;stroke-dasharray:2.98883,2.98883;stroke-miterlimit:10;" d="M 89.999531 -90.000219 L 89.999531 -202.504125 L 198.003438 -202.504125 L 198.003438 -90.000219 Z M 89.999531 -90.000219 " transform="matrix(1,0,0,-1,-84.48,-87.801)"/>
</g>
</svg>

