<?xml version="1.0" encoding="UTF-8"?>
<svg xmlns="http://www.w3.org/2000/svg" xmlns:xlink="http://www.w3.org/1999/xlink" width="302.967pt" height="117.695pt" viewBox="0 0 302.967 117.695" version="1.1">
<g id="surface1">
<path style="fill-rule:nonzero;fill:rgb(0%,0%,0%);fill-opacity:1;stroke-width:0.3985;stroke-linecap:butt;stroke-linejoin:miter;stroke:rgb(0%,0%,0%);stroke-opacity:1;stroke-miterlimit:10;" d="M 33.780219 -20.250656 C 33.780219 -19.62175 33.2685 -19.110031 32.639594 -19.110031 C 32.010688 -19.110031 31.498969 -19.62175 31.498969 -20.250656 C 31.498969 -20.879563 32.010688 -21.391281 32.639594 -21.391281 C 33.2685 -21.391281 33.780219 -20.879563 33.780219 -20.250656 Z M 33.780219 -20.250656 " transform="matrix(1,0,0,-1,-9.831,4.847)"/>
<path style="fill-rule:nonzero;fill:rgb(0%,0%,0%);fill-opacity:1;stroke-width:0.3985;stroke-linecap:butt;stroke-linejoin:miter;stroke:rgb(0%,0%,0%);stroke-opacity:1;stroke-miterlimit:10;" d="M 41.639594 -13.500656 C 41.639594 -12.87175 41.131781 -12.360031 40.498969 -12.360031 C 39.870063 -12.360031 39.36225 -12.87175 39.36225 -13.500656 C 39.36225 -14.129563 39.870063 -14.641281 40.498969 -14.641281 C 41.131781 -14.641281 41.639594 -14.129563 41.639594 -13.500656 Z M 41.639594 -13.500656 " transform="matrix(1,0,0,-1,-9.831,4.847)"/>
<path style="fill-rule:nonzero;fill:rgb(0%,0%,0%);fill-opacity:1;stroke-width:0.3985;stroke-linecap:butt;stroke-linejoin:miter;stroke:rgb(0%,0%,0%);stroke-opacity:1;stroke-miterlimit:10;" d="M 34.889594 -2.250656 C 34.889594 -1.62175 34.381781 -1.110031 33.748969 -1.110031 C 33.120063 -1.110031 32.61225 -1.62175 32.61225 -2.250656 C 32.61225 -2.879563 33.120063 -3.391281 33.748969 -3.391281 C 34.381781 -3.391281 34.889594 -2.879563 34.889594 -2.250656 Z M 34.889594 -2.250656 " transform="matrix(1,0,0,-1,-9.831,4.847)"/>
<path style="fill-rule:nonzero;fill:rgb(0%,0%,0%);fill-opacity:1;stroke-width:0.3985;stroke-linecap:butt;stroke-linejoin:miter;stroke:rgb(0%,0%,0%);stroke-opacity:1;stroke-miterlimit:10;" d="M 23.639594 -11.250656 C 23.639594 -10.62175 23.127875 -10.110031 22.498969 -10.110031 C 21.870062 -10.110031 21.358344 -10.62175 21.358344 -11.250656 C 21.358344 -11.879563 21.870062 -12.391281 22.498969 -12.391281 C 23.127875 -12.391281 23.639594 -11.879563 23.639594 -11.250656 Z M 23.639594 -11.250656 " transform="matrix(1,0,0,-1,-9.831,4.847)"/>
<path style="fill-rule:nonzero;fill:rgb(100%,0%,0%);fill-opacity:1;stroke-width:0.3985;stroke-linecap:butt;stroke-linejoin:miter;stroke:rgb(0%,0%,0%);stroke-opacity:1;stroke-miterlimit:10;" d="M 33.780219 -11.250656 C 33.780219 -9.988938 32.760688 -8.969406 31.498969 -8.969406 C 30.241156 -8.969406 29.221625 -9.988938 29.221625 -11.250656 C 29.221625 -12.508469 30.241156 -13.531906 31.498969 -13.531906 C 32.760688 -13.531906 33.780219 -12.508469 33.780219 -11.250656 Z M 33.780219 -11.250656 " transform="matrix(1,0,0,-1,-9.831,4.847)"/>
<path style="fill-rule:nonzero;fill:rgb(0%,0%,0%);fill-opacity:1;stroke-width:0.3985;stroke-linecap:butt;stroke-linejoin:miter;stroke:rgb(0%,0%,0%);stroke-opacity:1;stroke-miterlimit:10;" d="M 51.780219 -92.250656 C 51.780219 -91.62175 51.2685 -91.110031 50.639594 -91.110031 C 50.010688 -91.110031 49.498969 -91.62175 49.498969 -92.250656 C 49.498969 -92.879563 50.010688 -93.391281 50.639594 -93.391281 C 51.2685 -93.391281 51.780219 -92.879563 51.780219 -92.250656 Z M 51.780219 -92.250656 " transform="matrix(1,0,0,-1,-9.831,4.847)"/>
<path style="fill-rule:nonzero;fill:rgb(0%,0%,0%);fill-opacity:1;stroke-width:0.3985;stroke-linecap:butt;stroke-linejoin:miter;stroke:rgb(0%,0%,0%);stroke-opacity:1;stroke-miterlimit:10;" d="M 59.639594 -85.500656 C 59.639594 -84.87175 59.131781 -84.360031 58.498969 -84.360031 C 57.870063 -84.360031 57.36225 -84.87175 57.36225 -85.500656 C 57.36225 -86.129563 57.870063 -86.641281 58.498969 -86.641281 C 59.131781 -86.641281 59.639594 -86.129563 59.639594 -85.500656 Z M 59.639594 -85.500656 " transform="matrix(1,0,0,-1,-9.831,4.847)"/>
<path style="fill-rule:nonzero;fill:rgb(0%,0%,0%);fill-opacity:1;stroke-width:0.3985;stroke-linecap:butt;stroke-linejoin:miter;stroke:rgb(0%,0%,0%);stroke-opacity:1;stroke-miterlimit:10;" d="M 52.889594 -74.250656 C 52.889594 -73.62175 52.381781 -73.110031 51.748969 -73.110031 C 51.120063 -73.110031 50.61225 -73.62175 50.61225 -74.250656 C 50.61225 -74.879563 51.120063 -75.391281 51.748969 -75.391281 C 52.381781 -75.391281 52.889594 -74.879563 52.889594 -74.250656 Z M 52.889594 -74.250656 " transform="matrix(1,0,0,-1,-9.831,4.847)"/>
<path style="fill-rule:nonzero;fill:rgb(0%,0%,0%);fill-opacity:1;stroke-width:0.3985;stroke-linecap:butt;stroke-linejoin:miter;stroke:rgb(0%,0%,0%);stroke-opacity:1;stroke-miterlimit:10;" d="M 41.639594 -83.250656 C 41.639594 -82.62175 41.131781 -82.110031 40.498969 -82.110031 C 39.870063 -82.110031 39.36225 -82.62175 39.36225 -83.250656 C 39.36225 -83.879563 39.870063 -84.391281 40.498969 -84.391281 C 41.131781 -84.391281 41.639594 -83.879563 41.639594 -83.250656 Z M 41.639594 -83.250656 " transform="matrix(1,0,0,-1,-9.831,4.847)"/>
<path style="fill-rule:nonzero;fill:rgb(0%,0%,100%);fill-opacity:1;stroke-width:0.3985;stroke-linecap:butt;stroke-linejoin:miter;stroke:rgb(0%,0%,0%);stroke-opacity:1;stroke-miterlimit:10;" d="M 51.780219 -83.250656 C 51.780219 -81.992844 50.760688 -80.969406 49.498969 -80.969406 C 48.241156 -80.969406 47.221625 -81.992844 47.221625 -83.250656 C 47.221625 -84.508469 48.241156 -85.531906 49.498969 -85.531906 C 50.760688 -85.531906 51.780219 -84.508469 51.780219 -83.250656 Z M 51.780219 -83.250656 " transform="matrix(1,0,0,-1,-9.831,4.847)"/>
<path style="fill-rule:nonzero;fill:rgb(100%,94.898987%,0%);fill-opacity:1;stroke-width:0.3985;stroke-linecap:butt;stroke-linejoin:miter;stroke:rgb(0%,0%,0%);stroke-opacity:1;stroke-miterlimit:10;" d="M 43.709906 -47.219406 C 43.709906 -45.445969 42.272406 -44.012375 40.498969 -44.012375 C 38.729438 -44.012375 37.291938 -45.445969 37.291938 -47.219406 C 37.291938 -48.992844 38.729438 -50.430344 40.498969 -50.430344 C 42.272406 -50.430344 43.709906 -48.992844 43.709906 -47.219406 Z M 43.709906 -47.219406 " transform="matrix(1,0,0,-1,-9.831,4.847)"/>
<path style="fill-rule:nonzero;fill:rgb(0%,0%,0%);fill-opacity:1;stroke-width:0.3985;stroke-linecap:butt;stroke-linejoin:miter;stroke:rgb(0%,0%,0%);stroke-opacity:1;stroke-miterlimit:10;" d="M 283.534125 -49.500656 C 283.534125 -48.87175 283.022406 -48.360031 282.3935 -48.360031 C 281.764594 -48.360031 281.252875 -48.87175 281.252875 -49.500656 C 281.252875 -50.129563 281.764594 -50.641281 282.3935 -50.641281 C 283.022406 -50.641281 283.534125 -50.129563 283.534125 -49.500656 Z M 283.534125 -49.500656 " transform="matrix(1,0,0,-1,-9.831,4.847)"/>
<path style="fill-rule:nonzero;fill:rgb(0%,0%,0%);fill-opacity:1;stroke-width:0.3985;stroke-linecap:butt;stroke-linejoin:miter;stroke:rgb(0%,0%,0%);stroke-opacity:1;stroke-miterlimit:10;" d="M 291.3935 -42.750656 C 291.3935 -42.12175 290.881781 -41.610031 290.252875 -41.610031 C 289.623969 -41.610031 289.11225 -42.12175 289.11225 -42.750656 C 289.11225 -43.379563 289.623969 -43.891281 290.252875 -43.891281 C 290.881781 -43.891281 291.3935 -43.379563 291.3935 -42.750656 Z M 291.3935 -42.750656 " transform="matrix(1,0,0,-1,-9.831,4.847)"/>
<path style="fill-rule:nonzero;fill:rgb(0%,0%,0%);fill-opacity:1;stroke-width:0.3985;stroke-linecap:butt;stroke-linejoin:miter;stroke:rgb(0%,0%,0%);stroke-opacity:1;stroke-miterlimit:10;" d="M 273.3935 -40.500656 C 273.3935 -39.87175 272.881781 -39.360031 272.252875 -39.360031 C 271.623969 -39.360031 271.11225 -39.87175 271.11225 -40.500656 C 271.11225 -41.129563 271.623969 -41.641281 272.252875 -41.641281 C 272.881781 -41.641281 273.3935 -41.129563 273.3935 -40.500656 Z M 273.3935 -40.500656 " transform="matrix(1,0,0,-1,-9.831,4.847)"/>
<path style="fill-rule:nonzero;fill:rgb(0%,0%,0%);fill-opacity:1;stroke-width:0.3985;stroke-linecap:butt;stroke-linejoin:miter;stroke:rgb(0%,0%,0%);stroke-opacity:1;stroke-miterlimit:10;" d="M 286.8935 -24.750656 C 286.8935 -24.12175 286.381781 -23.610031 285.752875 -23.610031 C 285.123969 -23.610031 284.61225 -24.12175 284.61225 -24.750656 C 284.61225 -25.379563 285.123969 -25.891281 285.752875 -25.891281 C 286.381781 -25.891281 286.8935 -25.379563 286.8935 -24.750656 Z M 286.8935 -24.750656 " transform="matrix(1,0,0,-1,-9.831,4.847)"/>
<path style="fill-rule:nonzero;fill:rgb(0%,100%,0%);fill-opacity:1;stroke-width:0.3985;stroke-linecap:butt;stroke-linejoin:miter;stroke:rgb(0%,0%,0%);stroke-opacity:1;stroke-miterlimit:10;" d="M 285.752875 -36.000656 C 285.752875 -34.742844 284.733344 -33.719406 283.471625 -33.719406 C 282.213813 -33.719406 281.194281 -34.742844 281.194281 -36.000656 C 281.194281 -37.258469 282.213813 -38.281906 283.471625 -38.281906 C 284.733344 -38.281906 285.752875 -37.258469 285.752875 -36.000656 Z M 285.752875 -36.000656 " transform="matrix(1,0,0,-1,-9.831,4.847)"/>
<path style="fill:none;stroke-width:0.59776;stroke-linecap:butt;stroke-linejoin:miter;stroke:rgb(100%,0%,0%);stroke-opacity:1;stroke-miterlimit:10;" d="M 17.998969 -0.00065625 L 17.998969 -54.000656 L 71.998969 -54.000656 L 71.998969 -0.00065625 Z M 17.998969 -0.00065625 " transform="matrix(1,0,0,-1,-9.831,4.847)"/>
<path style="fill:none;stroke-width:0.59776;stroke-linecap:butt;stroke-linejoin:miter;stroke:rgb(0%,0%,100%);stroke-opacity:1;stroke-miterlimit:10;" d="M 17.998969 -54.719406 L 17.998969 -108.000656 L 71.998969 -108.000656 L 71.998969 -54.719406 Z M 17.998969 -54.719406 " transform="matrix(1,0,0,-1,-9.831,4.847)"/>
<path style="fill:none;stroke-width:1.19553;stroke-linecap:butt;stroke-linejoin:miter;stroke:rgb(100%,94.898987%,0%);stroke-opacity:1;stroke-miterlimit:10;" d="M 15.748969 2.249344 L 15.748969 -110.250656 L 126.002875 -110.250656 L 126.002875 2.249344 Z M 15.748969 2.249344 " transform="matrix(1,0,0,-1,-9.831,4.847)"/>
<path style="fill:none;stroke-width:0.59776;stroke-linecap:butt;stroke-linejoin:miter;stroke:rgb(0%,100%,0%);stroke-opacity:1;stroke-miterlimit:10;" d="M 256.502875 -16.469406 L 256.502875 -69.750656 L 310.502875 -69.750656 L 310.502875 -16.469406 Z M 256.502875 -16.469406 " transform="matrix(1,0,0,-1,-9.831,4.847)"/>
<path style="fill:none;stroke-width:0.3985;stroke-linecap:butt;stroke-linejoin:miter;stroke:rgb(0%,0%,0%);stroke-opacity:1;stroke-miterlimit:10;" d="M 272.252875 -40.500656 L 45.459906 -47.238938 " transform="matrix(1,0,0,-1,-9.831,4.847)"/>
<path style="fill:none;stroke-width:0.31879;stroke-linecap:round;stroke-linejoin:round;stroke:rgb(0%,0%,0%);stroke-opacity:1;stroke-miterlimit:10;" d="M -1.196301 1.59239 C -1.096807 0.995567 0.00181726 0.0994997 0.299729 0.000794216 C -0.000189114 -0.0996993 -1.097353 -0.997002 -1.197174 -1.595722 " transform="matrix(-0.9998,0.02968,0.02968,0.9998,35.62777,52.08406)"/>
<path style="fill:none;stroke-width:0.3985;stroke-linecap:butt;stroke-linejoin:miter;stroke:rgb(0%,0%,0%);stroke-opacity:1;stroke-miterlimit:10;" d="M 272.252875 -40.500656 L 285.456 -25.098313 " transform="matrix(1,0,0,-1,-9.831,4.847)"/>
<path style="fill:none;stroke-width:0.31879;stroke-linecap:round;stroke-linejoin:round;stroke:rgb(0%,0%,0%);stroke-opacity:1;stroke-miterlimit:10;" d="M -1.195036 1.59318 C -1.094537 0.997465 -0.00144757 0.0990636 0.300003 -0.00141042 C -0.000175396 -0.0997904 -1.09617 -0.998253 -1.194524 -1.59524 " transform="matrix(0.65312,-0.76193,-0.76193,-0.65312,275.6233,29.94641)"/>
<path style="fill:none;stroke-width:0.3985;stroke-linecap:butt;stroke-linejoin:miter;stroke:rgb(0%,0%,0%);stroke-opacity:1;stroke-miterlimit:10;" d="M 272.252875 -40.500656 L 287.54975 -42.68425 " transform="matrix(1,0,0,-1,-9.831,4.847)"/>
<path style="fill:none;stroke-width:0.31879;stroke-linecap:round;stroke-linejoin:round;stroke:rgb(0%,0%,0%);stroke-opacity:1;stroke-miterlimit:10;" d="M -1.194144 1.593998 C -1.096965 0.996505 0.00136712 0.100248 0.299559 0.000845058 C -0.00139735 -0.101309 -1.096446 -0.995319 -1.196407 -1.593362 " transform="matrix(0.99034,0.14146,0.14146,-0.99034,277.71884,47.53268)"/>
<path style="fill:none;stroke-width:0.3985;stroke-linecap:butt;stroke-linejoin:miter;stroke:rgb(0%,0%,0%);stroke-opacity:1;stroke-miterlimit:10;" d="M 272.252875 -40.500656 L 280.928656 -49.176438 " transform="matrix(1,0,0,-1,-9.831,4.847)"/>
<path style="fill:none;stroke-width:0.31879;stroke-linecap:round;stroke-linejoin:round;stroke:rgb(0%,0%,0%);stroke-opacity:1;stroke-miterlimit:10;" d="M -1.196479 1.593232 C -1.097061 0.996619 -0.000539013 0.0989109 0.297763 -0.000532555 C -0.000544638 -0.0999591 -1.097117 -0.997606 -1.196569 -1.594213 " transform="matrix(0.70714,0.7071,0.7071,-0.70714,271.09841,54.02345)"/>
</g>
</svg>

