<?xml version="1.0" encoding="UTF-8"?>
<svg xmlns="http://www.w3.org/2000/svg" xmlns:xlink="http://www.w3.org/1999/xlink" width="164pt" height="128pt" viewBox="0 0 164 128" version="1.1">
<g id="surface1">
<path style="fill:none;stroke-width:4.5;stroke-linecap:butt;stroke-linejoin:miter;stroke:rgb(0%,0%,0%);stroke-opacity:1;stroke-miterlimit:10;" d="M 546.992188 95 C 720.820312 35.429688 903.28125 5 1086.992188 5 C 1270.742188 5 1453.203125 35.429688 1626.992188 95 " transform="matrix(0.1,0,0,-0.1,0,128)"/>
<path style="fill:none;stroke-width:4.5;stroke-linecap:butt;stroke-linejoin:miter;stroke:rgb(0%,0%,0%);stroke-opacity:1;stroke-miterlimit:10;" d="M 6.992188 815 L 186.992188 95 " transform="matrix(0.1,0,0,-0.1,0,128)"/>
<path style="fill:none;stroke-width:4.5;stroke-linecap:butt;stroke-linejoin:miter;stroke:rgb(0%,0%,0%);stroke-opacity:1;stroke-miterlimit:10;" d="M 186.992188 95 L 546.992188 95 L 546.992188 455 L 186.992188 455 Z M 186.992188 95 " transform="matrix(0.1,0,0,-0.1,0,128)"/>
<path style="fill:none;stroke-width:4.5;stroke-linecap:butt;stroke-linejoin:miter;stroke:rgb(0%,0%,0%);stroke-opacity:1;stroke-miterlimit:10;" d="M 6.992188 815 L 366.992188 815 L 366.992188 1175 L 6.992188 1175 Z M 6.992188 815 " transform="matrix(0.1,0,0,-0.1,0,128)"/>
<path style="fill:none;stroke-width:4.5;stroke-linecap:butt;stroke-linejoin:miter;stroke:rgb(0%,0%,0%);stroke-opacity:1;stroke-miterlimit:10;" d="M 6.992188 1175 L 186.992188 455 " transform="matrix(0.1,0,0,-0.1,0,128)"/>
<path style="fill:none;stroke-width:4.5;stroke-linecap:butt;stroke-linejoin:miter;stroke:rgb(0%,0%,0%);stroke-opacity:1;stroke-miterlimit:10;" d="M 366.992188 1175 L 546.992188 455 " transform="matrix(0.1,0,0,-0.1,0,128)"/>
<path style="fill:none;stroke-width:4.5;stroke-linecap:butt;stroke-linejoin:miter;stroke:rgb(0%,0%,0%);stroke-opacity:1;stroke-miterlimit:10;" d="M 366.992188 815 L 546.992188 95 " transform="matrix(0.1,0,0,-0.1,0,128)"/>
<path style="fill:none;stroke-width:4.5;stroke-linecap:butt;stroke-linejoin:miter;stroke:rgb(0%,0%,0%);stroke-opacity:1;stroke-miterlimit:10;" d="M 1266.992188 95 L 1626.992188 95 L 1626.992188 455 L 1266.992188 455 Z M 1266.992188 95 " transform="matrix(0.1,0,0,-0.1,0,128)"/>
<path style="fill:none;stroke-width:4.5;stroke-linecap:butt;stroke-linejoin:miter;stroke:rgb(0%,0%,0%);stroke-opacity:1;stroke-miterlimit:10;" d="M 1086.992188 815 L 1266.992188 95 " transform="matrix(0.1,0,0,-0.1,0,128)"/>
<path style="fill:none;stroke-width:4.5;stroke-linecap:butt;stroke-linejoin:miter;stroke:rgb(0%,0%,0%);stroke-opacity:1;stroke-miterlimit:10;" d="M 1266.992188 95 L 1626.992188 95 L 1626.992188 455 L 1266.992188 455 Z M 1266.992188 95 " transform="matrix(0.1,0,0,-0.1,0,128)"/>
<path style="fill:none;stroke-width:4.5;stroke-linecap:butt;stroke-linejoin:miter;stroke:rgb(0%,0%,0%);stroke-opacity:1;stroke-miterlimit:10;" d="M 1086.992188 815 L 1446.992188 815 L 1446.992188 1175 L 1086.992188 1175 Z M 1086.992188 815 " transform="matrix(0.1,0,0,-0.1,0,128)"/>
<path style="fill:none;stroke-width:4.5;stroke-linecap:butt;stroke-linejoin:miter;stroke:rgb(0%,0%,0%);stroke-opacity:1;stroke-miterlimit:10;" d="M 1086.992188 1175 L 1266.992188 455 " transform="matrix(0.1,0,0,-0.1,0,128)"/>
<path style="fill:none;stroke-width:4.5;stroke-linecap:butt;stroke-linejoin:miter;stroke:rgb(0%,0%,0%);stroke-opacity:1;stroke-miterlimit:10;" d="M 1446.992188 1175 L 1626.992188 455 " transform="matrix(0.1,0,0,-0.1,0,128)"/>
<path style="fill:none;stroke-width:4.5;stroke-linecap:butt;stroke-linejoin:miter;stroke:rgb(0%,0%,0%);stroke-opacity:1;stroke-miterlimit:10;" d="M 1446.992188 815 L 1626.992188 95 " transform="matrix(0.1,0,0,-0.1,0,128)"/>
<path style="fill:none;stroke-width:4.5;stroke-linecap:butt;stroke-linejoin:miter;stroke:rgb(0%,0%,0%);stroke-opacity:1;stroke-miterlimit:10;" d="M 6.992188 1175 C 180.820312 1234.609375 363.28125 1265 546.992188 1265 C 730.742188 1265 913.203125 1234.609375 1086.992188 1175 " transform="matrix(0.1,0,0,-0.1,0,128)"/>
<path style="fill:none;stroke-width:4.5;stroke-linecap:butt;stroke-linejoin:miter;stroke:rgb(0%,0%,0%);stroke-opacity:1;stroke-miterlimit:10;" d="M 6.992188 815 C 180.820312 874.570312 363.28125 905 546.992188 905 C 730.742188 905 913.203125 874.570312 1086.992188 815 " transform="matrix(0.1,0,0,-0.1,0,128)"/>
<path style="fill:none;stroke-width:4.5;stroke-linecap:butt;stroke-linejoin:miter;stroke:rgb(0%,0%,0%);stroke-opacity:1;stroke-miterlimit:10;" d="M 186.992188 95 C 360.820312 154.570312 543.28125 185 726.992188 185 C 910.742188 185 1093.203125 154.570312 1266.992188 95 " transform="matrix(0.1,0,0,-0.1,0,128)"/>
<path style="fill:none;stroke-width:4.5;stroke-linecap:butt;stroke-linejoin:miter;stroke:rgb(0%,0%,0%);stroke-opacity:1;stroke-miterlimit:10;" d="M 366.992188 1175 C 540.820312 1115.390625 723.28125 1085 906.992188 1085 C 1090.742188 1085 1273.203125 1115.390625 1446.992188 1175 " transform="matrix(0.1,0,0,-0.1,0,128)"/>
<path style="fill:none;stroke-width:4.5;stroke-linecap:butt;stroke-linejoin:miter;stroke:rgb(0%,0%,0%);stroke-opacity:1;stroke-miterlimit:10;" d="M 366.992188 815 C 540.820312 755.429688 723.28125 725 906.992188 725 C 1090.742188 725 1273.203125 755.429688 1446.992188 815 " transform="matrix(0.1,0,0,-0.1,0,128)"/>
<path style="fill:none;stroke-width:4.5;stroke-linecap:butt;stroke-linejoin:miter;stroke:rgb(0%,0%,0%);stroke-opacity:1;stroke-miterlimit:10;" d="M 186.992188 95 L 546.992188 95 L 546.992188 455 L 186.992188 455 Z M 186.992188 95 " transform="matrix(0.1,0,0,-0.1,0,128)"/>
</g>
</svg>
