<?xml version="1.0" encoding="UTF-8"?>
<svg xmlns="http://www.w3.org/2000/svg" xmlns:xlink="http://www.w3.org/1999/xlink" width="249pt" height="112pt" viewBox="0 0 249 112" version="1.1">
<g id="surface1">
<path style="fill:none;stroke-width:9;stroke-linecap:butt;stroke-linejoin:miter;stroke:rgb(0%,0%,0%);stroke-opacity:1;stroke-miterlimit:10;" d="M 1986.992188 726.992188 L 2346.992188 366.992188 " transform="matrix(0.1,0,0,-0.1,0,112)"/>
<path style="fill:none;stroke-width:4.5;stroke-linecap:butt;stroke-linejoin:miter;stroke:rgb(0%,0%,0%);stroke-opacity:1;stroke-miterlimit:10;" d="M 186.992188 366.992188 L 366.992188 6.992188 " transform="matrix(0.1,0,0,-0.1,0,112)"/>
<path style="fill:none;stroke-width:4.5;stroke-linecap:butt;stroke-linejoin:miter;stroke:rgb(0%,0%,0%);stroke-opacity:1;stroke-miterlimit:10;" d="M 906.992188 366.992188 L 726.992188 6.992188 " transform="matrix(0.1,0,0,-0.1,0,112)"/>
<path style="fill:none;stroke-width:4.5;stroke-linecap:butt;stroke-linejoin:miter;stroke:rgb(0%,0%,0%);stroke-opacity:1;stroke-miterlimit:10;" d="M 906.992188 366.992188 L 1086.992188 6.992188 " transform="matrix(0.1,0,0,-0.1,0,112)"/>
<path style="fill:none;stroke-width:4.5;stroke-linecap:butt;stroke-linejoin:miter;stroke:rgb(0%,0%,0%);stroke-opacity:1;stroke-miterlimit:10;" d="M 1626.992188 366.992188 L 1446.992188 6.992188 " transform="matrix(0.1,0,0,-0.1,0,112)"/>
<path style="fill:none;stroke-width:4.5;stroke-linecap:butt;stroke-linejoin:miter;stroke:rgb(0%,0%,0%);stroke-opacity:1;stroke-miterlimit:10;" d="M 1626.992188 366.992188 L 1761.992188 6.992188 " transform="matrix(0.1,0,0,-0.1,0,112)"/>
<path style="fill:none;stroke-width:4.5;stroke-linecap:butt;stroke-linejoin:miter;stroke:rgb(0%,0%,0%);stroke-opacity:1;stroke-miterlimit:10;" d="M 2346.992188 366.992188 L 2166.992188 6.992188 " transform="matrix(0.1,0,0,-0.1,0,112)"/>
<path style="fill:none;stroke-width:4.5;stroke-linecap:butt;stroke-linejoin:miter;stroke:rgb(0%,0%,0%);stroke-opacity:1;stroke-miterlimit:10;" d="M 2346.992188 366.992188 L 2481.992188 6.992188 " transform="matrix(0.1,0,0,-0.1,0,112)"/>
<path style="fill:none;stroke-width:27;stroke-linecap:butt;stroke-linejoin:miter;stroke:rgb(0%,0%,0%);stroke-opacity:1;stroke-miterlimit:10;" d="M 1266.992188 1086.992188 L 546.992188 726.992188 " transform="matrix(0.1,0,0,-0.1,0,112)"/>
<path style="fill:none;stroke-width:27;stroke-linecap:butt;stroke-linejoin:miter;stroke:rgb(0%,0%,0%);stroke-opacity:1;stroke-miterlimit:10;" d="M 1266.992188 1086.992188 L 1986.992188 726.992188 " transform="matrix(0.1,0,0,-0.1,0,112)"/>
<path style="fill:none;stroke-width:9;stroke-linecap:butt;stroke-linejoin:miter;stroke:rgb(0%,0%,0%);stroke-opacity:1;stroke-miterlimit:10;" d="M 546.992188 726.992188 L 186.992188 366.992188 " transform="matrix(0.1,0,0,-0.1,0,112)"/>
<path style="fill:none;stroke-width:9;stroke-linecap:butt;stroke-linejoin:miter;stroke:rgb(0%,0%,0%);stroke-opacity:1;stroke-miterlimit:10;" d="M 546.992188 726.992188 L 906.992188 366.992188 " transform="matrix(0.1,0,0,-0.1,0,112)"/>
<path style="fill:none;stroke-width:9;stroke-linecap:butt;stroke-linejoin:miter;stroke:rgb(0%,0%,0%);stroke-opacity:1;stroke-miterlimit:10;" d="M 1986.992188 726.992188 L 1626.992188 366.992188 " transform="matrix(0.1,0,0,-0.1,0,112)"/>
<path style="fill:none;stroke-width:4.5;stroke-linecap:butt;stroke-linejoin:miter;stroke:rgb(0%,0%,0%);stroke-opacity:1;stroke-miterlimit:10;" d="M 186.992188 366.992188 L 6.992188 6.992188 " transform="matrix(0.1,0,0,-0.1,0,112)"/>
</g>
</svg>
