<?xml version="1.0" encoding="UTF-8"?>
<svg xmlns="http://www.w3.org/2000/svg" xmlns:xlink="http://www.w3.org/1999/xlink" width="254pt" height="38pt" viewBox="0 0 254 38" version="1.1">
<g id="surface1">
<path style="fill:none;stroke-width:4.5;stroke-linecap:butt;stroke-linejoin:miter;stroke:rgb(0%,0%,0%);stroke-opacity:1;stroke-miterlimit:10;" d="M 2230 366.992188 C 2195.195312 366.992188 2166.992188 338.789062 2166.992188 303.984375 L 2166.992188 70 C 2166.992188 35.195312 2195.195312 6.992188 2230 6.992188 L 2463.984375 6.992188 C 2498.789062 6.992188 2526.992188 35.195312 2526.992188 70 L 2526.992188 303.984375 C 2526.992188 338.789062 2498.789062 366.992188 2463.984375 366.992188 Z M 2230 366.992188 " transform="matrix(0.1,0,0,-0.1,0,38)"/>
<path style="fill:none;stroke-width:4.5;stroke-linecap:butt;stroke-linejoin:miter;stroke:rgb(0%,0%,0%);stroke-opacity:1;stroke-miterlimit:10;" d="M 790 366.992188 C 755.195312 366.992188 726.992188 338.789062 726.992188 303.984375 L 726.992188 70 C 726.992188 35.195312 755.195312 6.992188 790 6.992188 L 1023.984375 6.992188 C 1058.789062 6.992188 1086.992188 35.195312 1086.992188 70 L 1086.992188 303.984375 C 1086.992188 338.789062 1058.789062 366.992188 1023.984375 366.992188 Z M 790 366.992188 " transform="matrix(0.1,0,0,-0.1,0,38)"/>
<path style="fill:none;stroke-width:4.5;stroke-linecap:butt;stroke-linejoin:miter;stroke:rgb(0%,0%,0%);stroke-opacity:1;stroke-miterlimit:10;" d="M 1510 366.992188 C 1475.195312 366.992188 1446.992188 338.789062 1446.992188 303.984375 L 1446.992188 70 C 1446.992188 35.195312 1475.195312 6.992188 1510 6.992188 L 1743.984375 6.992188 C 1778.789062 6.992188 1806.992188 35.195312 1806.992188 70 L 1806.992188 303.984375 C 1806.992188 338.789062 1778.789062 366.992188 1743.984375 366.992188 Z M 1510 366.992188 " transform="matrix(0.1,0,0,-0.1,0,38)"/>
<path style="fill:none;stroke-width:4.5;stroke-linecap:butt;stroke-linejoin:miter;stroke:rgb(0%,0%,0%);stroke-opacity:1;stroke-miterlimit:10;" d="M 70 366.992188 C 35.195312 366.992188 6.992188 338.789062 6.992188 303.984375 L 6.992188 70 C 6.992188 35.195312 35.195312 6.992188 70 6.992188 L 303.984375 6.992188 C 338.789062 6.992188 366.992188 35.195312 366.992188 70 L 366.992188 303.984375 C 366.992188 338.789062 338.789062 366.992188 303.984375 366.992188 Z M 70 366.992188 " transform="matrix(0.1,0,0,-0.1,0,38)"/>
<path style="fill:none;stroke-width:4.5;stroke-linecap:butt;stroke-linejoin:miter;stroke:rgb(0%,0%,0%);stroke-opacity:1;stroke-miterlimit:10;" d="M 366.992188 186.992188 L 726.992188 186.992188 " transform="matrix(0.1,0,0,-0.1,0,38)"/>
<path style="fill:none;stroke-width:4.5;stroke-linecap:butt;stroke-linejoin:miter;stroke:rgb(0%,0%,0%);stroke-opacity:1;stroke-miterlimit:10;" d="M 1086.992188 186.992188 L 1446.992188 186.992188 " transform="matrix(0.1,0,0,-0.1,0,38)"/>
<path style="fill:none;stroke-width:4.5;stroke-linecap:butt;stroke-linejoin:miter;stroke:rgb(0%,0%,0%);stroke-opacity:1;stroke-miterlimit:10;" d="M 1806.992188 186.992188 L 2166.992188 186.992188 " transform="matrix(0.1,0,0,-0.1,0,38)"/>
</g>
</svg>
