<?xml version="1.0" encoding="UTF-8"?>
<svg xmlns="http://www.w3.org/2000/svg" xmlns:xlink="http://www.w3.org/1999/xlink" width="119pt" height="119pt" viewBox="0 0 119 119" version="1.1">
<g id="surface1">
<path style="fill:none;stroke-width:4.5;stroke-linecap:butt;stroke-linejoin:miter;stroke:rgb(0%,0%,0%);stroke-opacity:1;stroke-miterlimit:10;" d="M 1131.992188 1131.992188 L 1131.992188 51.992188 " transform="matrix(0.1,0,0,-0.1,0,119)"/>
<path style="fill:none;stroke-width:4.5;stroke-linecap:butt;stroke-linejoin:miter;stroke:rgb(0%,0%,0%);stroke-opacity:1;stroke-miterlimit:10;" d="M 51.992188 816.992188 C 27.148438 816.992188 6.992188 796.835938 6.992188 771.992188 C 6.992188 747.148438 27.148438 726.992188 51.992188 726.992188 C 76.835938 726.992188 96.992188 747.148438 96.992188 771.992188 C 96.992188 796.835938 76.835938 816.992188 51.992188 816.992188 Z M 51.992188 816.992188 " transform="matrix(0.1,0,0,-0.1,0,119)"/>
<path style="fill:none;stroke-width:4.5;stroke-linecap:butt;stroke-linejoin:miter;stroke:rgb(0%,0%,0%);stroke-opacity:1;stroke-miterlimit:10;" d="M 51.992188 456.992188 C 27.148438 456.992188 6.992188 436.835938 6.992188 411.992188 C 6.992188 387.148438 27.148438 366.992188 51.992188 366.992188 C 76.835938 366.992188 96.992188 387.148438 96.992188 411.992188 C 96.992188 436.835938 76.835938 456.992188 51.992188 456.992188 Z M 51.992188 456.992188 " transform="matrix(0.1,0,0,-0.1,0,119)"/>
<path style="fill:none;stroke-width:4.5;stroke-linecap:butt;stroke-linejoin:miter;stroke:rgb(0%,0%,0%);stroke-opacity:1;stroke-miterlimit:10;" d="M 51.992188 96.992188 C 27.148438 96.992188 6.992188 76.835938 6.992188 51.992188 C 6.992188 27.148438 27.148438 6.992188 51.992188 6.992188 C 76.835938 6.992188 96.992188 27.148438 96.992188 51.992188 C 96.992188 76.835938 76.835938 96.992188 51.992188 96.992188 Z M 51.992188 96.992188 " transform="matrix(0.1,0,0,-0.1,0,119)"/>
<path style="fill:none;stroke-width:4.5;stroke-linecap:butt;stroke-linejoin:miter;stroke:rgb(0%,0%,0%);stroke-opacity:1;stroke-miterlimit:10;" d="M 411.992188 96.992188 C 387.148438 96.992188 366.992188 76.835938 366.992188 51.992188 C 366.992188 27.148438 387.148438 6.992188 411.992188 6.992188 C 436.835938 6.992188 456.992188 27.148438 456.992188 51.992188 C 456.992188 76.835938 436.835938 96.992188 411.992188 96.992188 Z M 411.992188 96.992188 " transform="matrix(0.1,0,0,-0.1,0,119)"/>
<path style="fill:none;stroke-width:4.5;stroke-linecap:butt;stroke-linejoin:miter;stroke:rgb(0%,0%,0%);stroke-opacity:1;stroke-miterlimit:10;" d="M 411.992188 456.992188 C 387.148438 456.992188 366.992188 436.835938 366.992188 411.992188 C 366.992188 387.148438 387.148438 366.992188 411.992188 366.992188 C 436.835938 366.992188 456.992188 387.148438 456.992188 411.992188 C 456.992188 436.835938 436.835938 456.992188 411.992188 456.992188 Z M 411.992188 456.992188 " transform="matrix(0.1,0,0,-0.1,0,119)"/>
<path style="fill:none;stroke-width:4.5;stroke-linecap:butt;stroke-linejoin:miter;stroke:rgb(0%,0%,0%);stroke-opacity:1;stroke-miterlimit:10;" d="M 411.992188 816.992188 C 387.148438 816.992188 366.992188 796.835938 366.992188 771.992188 C 366.992188 747.148438 387.148438 726.992188 411.992188 726.992188 C 436.835938 726.992188 456.992188 747.148438 456.992188 771.992188 C 456.992188 796.835938 436.835938 816.992188 411.992188 816.992188 Z M 411.992188 816.992188 " transform="matrix(0.1,0,0,-0.1,0,119)"/>
<path style="fill:none;stroke-width:4.5;stroke-linecap:butt;stroke-linejoin:miter;stroke:rgb(0%,0%,0%);stroke-opacity:1;stroke-miterlimit:10;" d="M 411.992188 1176.992188 C 387.148438 1176.992188 366.992188 1156.835938 366.992188 1131.992188 C 366.992188 1107.148438 387.148438 1086.992188 411.992188 1086.992188 C 436.835938 1086.992188 456.992188 1107.148438 456.992188 1131.992188 C 456.992188 1156.835938 436.835938 1176.992188 411.992188 1176.992188 Z M 411.992188 1176.992188 " transform="matrix(0.1,0,0,-0.1,0,119)"/>
<path style="fill:none;stroke-width:4.5;stroke-linecap:butt;stroke-linejoin:miter;stroke:rgb(0%,0%,0%);stroke-opacity:1;stroke-miterlimit:10;" d="M 771.992188 1176.992188 C 747.148438 1176.992188 726.992188 1156.835938 726.992188 1131.992188 C 726.992188 1107.148438 747.148438 1086.992188 771.992188 1086.992188 C 796.835938 1086.992188 816.992188 1107.148438 816.992188 1131.992188 C 816.992188 1156.835938 796.835938 1176.992188 771.992188 1176.992188 Z M 771.992188 1176.992188 " transform="matrix(0.1,0,0,-0.1,0,119)"/>
<path style="fill:none;stroke-width:4.5;stroke-linecap:butt;stroke-linejoin:miter;stroke:rgb(0%,0%,0%);stroke-opacity:1;stroke-miterlimit:10;" d="M 771.992188 816.992188 C 747.148438 816.992188 726.992188 796.835938 726.992188 771.992188 C 726.992188 747.148438 747.148438 726.992188 771.992188 726.992188 C 796.835938 726.992188 816.992188 747.148438 816.992188 771.992188 C 816.992188 796.835938 796.835938 816.992188 771.992188 816.992188 Z M 771.992188 816.992188 " transform="matrix(0.1,0,0,-0.1,0,119)"/>
<path style="fill:none;stroke-width:4.5;stroke-linecap:butt;stroke-linejoin:miter;stroke:rgb(0%,0%,0%);stroke-opacity:1;stroke-miterlimit:10;" d="M 771.992188 456.992188 C 747.148438 456.992188 726.992188 436.835938 726.992188 411.992188 C 726.992188 387.148438 747.148438 366.992188 771.992188 366.992188 C 796.835938 366.992188 816.992188 387.148438 816.992188 411.992188 C 816.992188 436.835938 796.835938 456.992188 771.992188 456.992188 Z M 771.992188 456.992188 " transform="matrix(0.1,0,0,-0.1,0,119)"/>
<path style="fill:none;stroke-width:4.5;stroke-linecap:butt;stroke-linejoin:miter;stroke:rgb(0%,0%,0%);stroke-opacity:1;stroke-miterlimit:10;" d="M 771.992188 96.992188 C 747.148438 96.992188 726.992188 76.835938 726.992188 51.992188 C 726.992188 27.148438 747.148438 6.992188 771.992188 6.992188 C 796.835938 6.992188 816.992188 27.148438 816.992188 51.992188 C 816.992188 76.835938 796.835938 96.992188 771.992188 96.992188 Z M 771.992188 96.992188 " transform="matrix(0.1,0,0,-0.1,0,119)"/>
<path style="fill:none;stroke-width:4.5;stroke-linecap:butt;stroke-linejoin:miter;stroke:rgb(0%,0%,0%);stroke-opacity:1;stroke-miterlimit:10;" d="M 1131.992188 96.992188 C 1107.148438 96.992188 1086.992188 76.835938 1086.992188 51.992188 C 1086.992188 27.148438 1107.148438 6.992188 1131.992188 6.992188 C 1156.835938 6.992188 1176.992188 27.148438 1176.992188 51.992188 C 1176.992188 76.835938 1156.835938 96.992188 1131.992188 96.992188 Z M 1131.992188 96.992188 " transform="matrix(0.1,0,0,-0.1,0,119)"/>
<path style="fill:none;stroke-width:4.5;stroke-linecap:butt;stroke-linejoin:miter;stroke:rgb(0%,0%,0%);stroke-opacity:1;stroke-miterlimit:10;" d="M 1131.992188 456.992188 C 1107.148438 456.992188 1086.992188 436.835938 1086.992188 411.992188 C 1086.992188 387.148438 1107.148438 366.992188 1131.992188 366.992188 C 1156.835938 366.992188 1176.992188 387.148438 1176.992188 411.992188 C 1176.992188 436.835938 1156.835938 456.992188 1131.992188 456.992188 Z M 1131.992188 456.992188 " transform="matrix(0.1,0,0,-0.1,0,119)"/>
<path style="fill:none;stroke-width:4.5;stroke-linecap:butt;stroke-linejoin:miter;stroke:rgb(0%,0%,0%);stroke-opacity:1;stroke-miterlimit:10;" d="M 1131.992188 816.992188 C 1107.148438 816.992188 1086.992188 796.835938 1086.992188 771.992188 C 1086.992188 747.148438 1107.148438 726.992188 1131.992188 726.992188 C 1156.835938 726.992188 1176.992188 747.148438 1176.992188 771.992188 C 1176.992188 796.835938 1156.835938 816.992188 1131.992188 816.992188 Z M 1131.992188 816.992188 " transform="matrix(0.1,0,0,-0.1,0,119)"/>
<path style="fill:none;stroke-width:4.5;stroke-linecap:butt;stroke-linejoin:miter;stroke:rgb(0%,0%,0%);stroke-opacity:1;stroke-miterlimit:10;" d="M 1131.992188 1176.992188 C 1107.148438 1176.992188 1086.992188 1156.835938 1086.992188 1131.992188 C 1086.992188 1107.148438 1107.148438 1086.992188 1131.992188 1086.992188 C 1156.835938 1086.992188 1176.992188 1107.148438 1176.992188 1131.992188 C 1176.992188 1156.835938 1156.835938 1176.992188 1131.992188 1176.992188 Z M 1131.992188 1176.992188 " transform="matrix(0.1,0,0,-0.1,0,119)"/>
<path style="fill:none;stroke-width:4.5;stroke-linecap:butt;stroke-linejoin:miter;stroke:rgb(0%,0%,0%);stroke-opacity:1;stroke-miterlimit:10;" d="M 51.992188 1131.992188 L 1131.992188 1131.992188 " transform="matrix(0.1,0,0,-0.1,0,119)"/>
<path style="fill:none;stroke-width:4.5;stroke-linecap:butt;stroke-linejoin:miter;stroke:rgb(0%,0%,0%);stroke-opacity:1;stroke-miterlimit:10;" d="M 51.992188 771.992188 L 1131.992188 771.992188 " transform="matrix(0.1,0,0,-0.1,0,119)"/>
<path style="fill:none;stroke-width:4.5;stroke-linecap:butt;stroke-linejoin:miter;stroke:rgb(0%,0%,0%);stroke-opacity:1;stroke-miterlimit:10;" d="M 51.992188 411.992188 L 1131.992188 411.992188 " transform="matrix(0.1,0,0,-0.1,0,119)"/>
<path style="fill:none;stroke-width:4.5;stroke-linecap:butt;stroke-linejoin:miter;stroke:rgb(0%,0%,0%);stroke-opacity:1;stroke-miterlimit:10;" d="M 51.992188 51.992188 L 1131.992188 51.992188 " transform="matrix(0.1,0,0,-0.1,0,119)"/>
<path style="fill:none;stroke-width:4.5;stroke-linecap:butt;stroke-linejoin:miter;stroke:rgb(0%,0%,0%);stroke-opacity:1;stroke-miterlimit:10;" d="M 51.992188 1131.992188 L 51.992188 51.992188 " transform="matrix(0.1,0,0,-0.1,0,119)"/>
<path style="fill:none;stroke-width:4.5;stroke-linecap:butt;stroke-linejoin:miter;stroke:rgb(0%,0%,0%);stroke-opacity:1;stroke-miterlimit:10;" d="M 411.992188 1131.992188 L 411.992188 51.992188 " transform="matrix(0.1,0,0,-0.1,0,119)"/>
<path style="fill:none;stroke-width:4.5;stroke-linecap:butt;stroke-linejoin:miter;stroke:rgb(0%,0%,0%);stroke-opacity:1;stroke-miterlimit:10;" d="M 771.992188 1131.992188 L 771.992188 51.992188 " transform="matrix(0.1,0,0,-0.1,0,119)"/>
<path style="fill:none;stroke-width:4.5;stroke-linecap:butt;stroke-linejoin:miter;stroke:rgb(0%,0%,0%);stroke-opacity:1;stroke-miterlimit:10;" d="M 51.992188 1176.992188 C 27.148438 1176.992188 6.992188 1156.835938 6.992188 1131.992188 C 6.992188 1107.148438 27.148438 1086.992188 51.992188 1086.992188 C 76.835938 1086.992188 96.992188 1107.148438 96.992188 1131.992188 C 96.992188 1156.835938 76.835938 1176.992188 51.992188 1176.992188 Z M 51.992188 1176.992188 " transform="matrix(0.1,0,0,-0.1,0,119)"/>
</g>
</svg>
