<?xml version="1.0" encoding="UTF-8"?>
<svg xmlns="http://www.w3.org/2000/svg" xmlns:xlink="http://www.w3.org/1999/xlink" width="137pt" height="137pt" viewBox="0 0 137 137" version="1.1">
<g id="surface1">
<path style="fill:none;stroke-width:4.5;stroke-linecap:butt;stroke-linejoin:bevel;stroke:rgb(0%,0%,0%);stroke-opacity:1;stroke-miterlimit:10;" d="M 1223.007812 1223.007812 L 1224.804688 1223.59375 L 1228.398438 1225.390625 L 1233.789062 1228.398438 L 1242.1875 1231.992188 L 1253.007812 1237.382812 L 1265 1243.398438 L 1277.617188 1250 L 1290.78125 1256.601562 L 1303.398438 1263.789062 L 1316.015625 1271.601562 L 1327.382812 1279.414062 L 1337.617188 1287.1875 L 1346.601562 1295.585938 L 1353.789062 1304.609375 L 1358.007812 1313.007812 L 1359.21875 1321.992188 L 1356.210938 1329.804688 L 1350.78125 1335.78125 L 1343.007812 1340.585938 L 1333.398438 1344.804688 L 1323.203125 1348.398438 L 1311.796875 1350.78125 L 1300.390625 1353.203125 L 1289.609375 1355 L 1280.585938 1356.210938 L 1273.984375 1357.382812 L 1269.804688 1358.007812 L 1268.007812 1358.007812 " transform="matrix(0.1,0,0,-0.1,0,137)"/>
<path style="fill:none;stroke-width:4.5;stroke-linecap:butt;stroke-linejoin:miter;stroke:rgb(0%,0%,0%);stroke-opacity:1;stroke-miterlimit:10;" d="M 143.007812 908.007812 C 118.164062 908.007812 98.007812 887.851562 98.007812 863.007812 C 98.007812 838.164062 118.164062 818.007812 143.007812 818.007812 C 167.851562 818.007812 188.007812 838.164062 188.007812 863.007812 C 188.007812 887.851562 167.851562 908.007812 143.007812 908.007812 Z M 143.007812 908.007812 " transform="matrix(0.1,0,0,-0.1,0,137)"/>
<path style="fill:none;stroke-width:4.5;stroke-linecap:butt;stroke-linejoin:miter;stroke:rgb(0%,0%,0%);stroke-opacity:1;stroke-miterlimit:10;" d="M 143.007812 548.007812 C 118.164062 548.007812 98.007812 527.851562 98.007812 503.007812 C 98.007812 478.164062 118.164062 458.007812 143.007812 458.007812 C 167.851562 458.007812 188.007812 478.164062 188.007812 503.007812 C 188.007812 527.851562 167.851562 548.007812 143.007812 548.007812 Z M 143.007812 548.007812 " transform="matrix(0.1,0,0,-0.1,0,137)"/>
<path style="fill:none;stroke-width:4.5;stroke-linecap:butt;stroke-linejoin:miter;stroke:rgb(0%,0%,0%);stroke-opacity:1;stroke-miterlimit:10;" d="M 143.007812 188.007812 C 118.164062 188.007812 98.007812 167.851562 98.007812 143.007812 C 98.007812 118.164062 118.164062 98.007812 143.007812 98.007812 C 167.851562 98.007812 188.007812 118.164062 188.007812 143.007812 C 188.007812 167.851562 167.851562 188.007812 143.007812 188.007812 Z M 143.007812 188.007812 " transform="matrix(0.1,0,0,-0.1,0,137)"/>
<path style="fill:none;stroke-width:4.5;stroke-linecap:butt;stroke-linejoin:miter;stroke:rgb(0%,0%,0%);stroke-opacity:1;stroke-miterlimit:10;" d="M 503.007812 188.007812 C 478.164062 188.007812 458.007812 167.851562 458.007812 143.007812 C 458.007812 118.164062 478.164062 98.007812 503.007812 98.007812 C 527.851562 98.007812 548.007812 118.164062 548.007812 143.007812 C 548.007812 167.851562 527.851562 188.007812 503.007812 188.007812 Z M 503.007812 188.007812 " transform="matrix(0.1,0,0,-0.1,0,137)"/>
<path style="fill:none;stroke-width:4.5;stroke-linecap:butt;stroke-linejoin:miter;stroke:rgb(0%,0%,0%);stroke-opacity:1;stroke-miterlimit:10;" d="M 503.007812 548.007812 C 478.164062 548.007812 458.007812 527.851562 458.007812 503.007812 C 458.007812 478.164062 478.164062 458.007812 503.007812 458.007812 C 527.851562 458.007812 548.007812 478.164062 548.007812 503.007812 C 548.007812 527.851562 527.851562 548.007812 503.007812 548.007812 Z M 503.007812 548.007812 " transform="matrix(0.1,0,0,-0.1,0,137)"/>
<path style="fill:none;stroke-width:4.5;stroke-linecap:butt;stroke-linejoin:miter;stroke:rgb(0%,0%,0%);stroke-opacity:1;stroke-miterlimit:10;" d="M 503.007812 908.007812 C 478.164062 908.007812 458.007812 887.851562 458.007812 863.007812 C 458.007812 838.164062 478.164062 818.007812 503.007812 818.007812 C 527.851562 818.007812 548.007812 838.164062 548.007812 863.007812 C 548.007812 887.851562 527.851562 908.007812 503.007812 908.007812 Z M 503.007812 908.007812 " transform="matrix(0.1,0,0,-0.1,0,137)"/>
<path style="fill:none;stroke-width:4.5;stroke-linecap:butt;stroke-linejoin:miter;stroke:rgb(0%,0%,0%);stroke-opacity:1;stroke-miterlimit:10;" d="M 503.007812 1268.007812 C 478.164062 1268.007812 458.007812 1247.851562 458.007812 1223.007812 C 458.007812 1198.164062 478.164062 1178.007812 503.007812 1178.007812 C 527.851562 1178.007812 548.007812 1198.164062 548.007812 1223.007812 C 548.007812 1247.851562 527.851562 1268.007812 503.007812 1268.007812 Z M 503.007812 1268.007812 " transform="matrix(0.1,0,0,-0.1,0,137)"/>
<path style="fill:none;stroke-width:4.5;stroke-linecap:butt;stroke-linejoin:miter;stroke:rgb(0%,0%,0%);stroke-opacity:1;stroke-miterlimit:10;" d="M 863.007812 1268.007812 C 838.164062 1268.007812 818.007812 1247.851562 818.007812 1223.007812 C 818.007812 1198.164062 838.164062 1178.007812 863.007812 1178.007812 C 887.851562 1178.007812 908.007812 1198.164062 908.007812 1223.007812 C 908.007812 1247.851562 887.851562 1268.007812 863.007812 1268.007812 Z M 863.007812 1268.007812 " transform="matrix(0.1,0,0,-0.1,0,137)"/>
<path style="fill:none;stroke-width:4.5;stroke-linecap:butt;stroke-linejoin:miter;stroke:rgb(0%,0%,0%);stroke-opacity:1;stroke-miterlimit:10;" d="M 863.007812 908.007812 C 838.164062 908.007812 818.007812 887.851562 818.007812 863.007812 C 818.007812 838.164062 838.164062 818.007812 863.007812 818.007812 C 887.851562 818.007812 908.007812 838.164062 908.007812 863.007812 C 908.007812 887.851562 887.851562 908.007812 863.007812 908.007812 Z M 863.007812 908.007812 " transform="matrix(0.1,0,0,-0.1,0,137)"/>
<path style="fill:none;stroke-width:4.5;stroke-linecap:butt;stroke-linejoin:miter;stroke:rgb(0%,0%,0%);stroke-opacity:1;stroke-miterlimit:10;" d="M 863.007812 548.007812 C 838.164062 548.007812 818.007812 527.851562 818.007812 503.007812 C 818.007812 478.164062 838.164062 458.007812 863.007812 458.007812 C 887.851562 458.007812 908.007812 478.164062 908.007812 503.007812 C 908.007812 527.851562 887.851562 548.007812 863.007812 548.007812 Z M 863.007812 548.007812 " transform="matrix(0.1,0,0,-0.1,0,137)"/>
<path style="fill:none;stroke-width:4.5;stroke-linecap:butt;stroke-linejoin:miter;stroke:rgb(0%,0%,0%);stroke-opacity:1;stroke-miterlimit:10;" d="M 863.007812 188.007812 C 838.164062 188.007812 818.007812 167.851562 818.007812 143.007812 C 818.007812 118.164062 838.164062 98.007812 863.007812 98.007812 C 887.851562 98.007812 908.007812 118.164062 908.007812 143.007812 C 908.007812 167.851562 887.851562 188.007812 863.007812 188.007812 Z M 863.007812 188.007812 " transform="matrix(0.1,0,0,-0.1,0,137)"/>
<path style="fill:none;stroke-width:4.5;stroke-linecap:butt;stroke-linejoin:miter;stroke:rgb(0%,0%,0%);stroke-opacity:1;stroke-miterlimit:10;" d="M 1223.007812 188.007812 C 1198.164062 188.007812 1178.007812 167.851562 1178.007812 143.007812 C 1178.007812 118.164062 1198.164062 98.007812 1223.007812 98.007812 C 1247.851562 98.007812 1268.007812 118.164062 1268.007812 143.007812 C 1268.007812 167.851562 1247.851562 188.007812 1223.007812 188.007812 Z M 1223.007812 188.007812 " transform="matrix(0.1,0,0,-0.1,0,137)"/>
<path style="fill:none;stroke-width:4.5;stroke-linecap:butt;stroke-linejoin:miter;stroke:rgb(0%,0%,0%);stroke-opacity:1;stroke-miterlimit:10;" d="M 1223.007812 548.007812 C 1198.164062 548.007812 1178.007812 527.851562 1178.007812 503.007812 C 1178.007812 478.164062 1198.164062 458.007812 1223.007812 458.007812 C 1247.851562 458.007812 1268.007812 478.164062 1268.007812 503.007812 C 1268.007812 527.851562 1247.851562 548.007812 1223.007812 548.007812 Z M 1223.007812 548.007812 " transform="matrix(0.1,0,0,-0.1,0,137)"/>
<path style="fill:none;stroke-width:4.5;stroke-linecap:butt;stroke-linejoin:miter;stroke:rgb(0%,0%,0%);stroke-opacity:1;stroke-miterlimit:10;" d="M 1223.007812 908.007812 C 1198.164062 908.007812 1178.007812 887.851562 1178.007812 863.007812 C 1178.007812 838.164062 1198.164062 818.007812 1223.007812 818.007812 C 1247.851562 818.007812 1268.007812 838.164062 1268.007812 863.007812 C 1268.007812 887.851562 1247.851562 908.007812 1223.007812 908.007812 Z M 1223.007812 908.007812 " transform="matrix(0.1,0,0,-0.1,0,137)"/>
<path style="fill:none;stroke-width:4.5;stroke-linecap:butt;stroke-linejoin:miter;stroke:rgb(0%,0%,0%);stroke-opacity:1;stroke-miterlimit:10;" d="M 1223.007812 1268.007812 C 1198.164062 1268.007812 1178.007812 1247.851562 1178.007812 1223.007812 C 1178.007812 1198.164062 1198.164062 1178.007812 1223.007812 1178.007812 C 1247.851562 1178.007812 1268.007812 1198.164062 1268.007812 1223.007812 C 1268.007812 1247.851562 1247.851562 1268.007812 1223.007812 1268.007812 Z M 1223.007812 1268.007812 " transform="matrix(0.1,0,0,-0.1,0,137)"/>
<path style="fill:none;stroke-width:4.5;stroke-linecap:butt;stroke-linejoin:miter;stroke:rgb(0%,0%,0%);stroke-opacity:1;stroke-miterlimit:10;" d="M 143.007812 1223.007812 L 1223.007812 1223.007812 " transform="matrix(0.1,0,0,-0.1,0,137)"/>
<path style="fill:none;stroke-width:4.5;stroke-linecap:butt;stroke-linejoin:miter;stroke:rgb(0%,0%,0%);stroke-opacity:1;stroke-miterlimit:10;" d="M 143.007812 863.007812 L 1223.007812 863.007812 " transform="matrix(0.1,0,0,-0.1,0,137)"/>
<path style="fill:none;stroke-width:4.5;stroke-linecap:butt;stroke-linejoin:miter;stroke:rgb(0%,0%,0%);stroke-opacity:1;stroke-miterlimit:10;" d="M 143.007812 503.007812 L 1223.007812 503.007812 " transform="matrix(0.1,0,0,-0.1,0,137)"/>
<path style="fill:none;stroke-width:4.5;stroke-linecap:butt;stroke-linejoin:miter;stroke:rgb(0%,0%,0%);stroke-opacity:1;stroke-miterlimit:10;" d="M 143.007812 143.007812 L 1223.007812 143.007812 " transform="matrix(0.1,0,0,-0.1,0,137)"/>
<path style="fill:none;stroke-width:4.5;stroke-linecap:butt;stroke-linejoin:miter;stroke:rgb(0%,0%,0%);stroke-opacity:1;stroke-miterlimit:10;" d="M 143.007812 1223.007812 L 143.007812 143.007812 " transform="matrix(0.1,0,0,-0.1,0,137)"/>
<path style="fill:none;stroke-width:4.5;stroke-linecap:butt;stroke-linejoin:miter;stroke:rgb(0%,0%,0%);stroke-opacity:1;stroke-miterlimit:10;" d="M 503.007812 1223.007812 L 503.007812 143.007812 " transform="matrix(0.1,0,0,-0.1,0,137)"/>
<path style="fill:none;stroke-width:4.5;stroke-linecap:butt;stroke-linejoin:miter;stroke:rgb(0%,0%,0%);stroke-opacity:1;stroke-miterlimit:10;" d="M 863.007812 1223.007812 L 863.007812 143.007812 " transform="matrix(0.1,0,0,-0.1,0,137)"/>
<path style="fill:none;stroke-width:4.5;stroke-linecap:butt;stroke-linejoin:miter;stroke:rgb(0%,0%,0%);stroke-opacity:1;stroke-miterlimit:10;" d="M 1223.007812 1223.007812 L 1223.007812 143.007812 " transform="matrix(0.1,0,0,-0.1,0,137)"/>
<path style="fill:none;stroke-width:4.5;stroke-linecap:butt;stroke-linejoin:miter;stroke:rgb(0%,0%,0%);stroke-opacity:1;stroke-miterlimit:10;" d="M 8.007812 1268.007812 L 8.007812 98.007812 " transform="matrix(0.1,0,0,-0.1,0,137)"/>
<path style="fill:none;stroke-width:4.5;stroke-linecap:butt;stroke-linejoin:miter;stroke:rgb(0%,0%,0%);stroke-opacity:1;stroke-miterlimit:10;" d="M 368.007812 1268.007812 L 368.007812 98.007812 " transform="matrix(0.1,0,0,-0.1,0,137)"/>
<path style="fill:none;stroke-width:4.5;stroke-linecap:butt;stroke-linejoin:miter;stroke:rgb(0%,0%,0%);stroke-opacity:1;stroke-miterlimit:10;" d="M 728.007812 1268.007812 L 728.007812 98.007812 " transform="matrix(0.1,0,0,-0.1,0,137)"/>
<path style="fill:none;stroke-width:4.5;stroke-linecap:butt;stroke-linejoin:miter;stroke:rgb(0%,0%,0%);stroke-opacity:1;stroke-miterlimit:10;" d="M 1088.007812 1268.007812 L 1088.007812 98.007812 " transform="matrix(0.1,0,0,-0.1,0,137)"/>
<path style="fill:none;stroke-width:4.5;stroke-linecap:butt;stroke-linejoin:miter;stroke:rgb(0%,0%,0%);stroke-opacity:1;stroke-miterlimit:10;" d="M 98.007812 1358.007812 L 1268.007812 1358.007812 " transform="matrix(0.1,0,0,-0.1,0,137)"/>
<path style="fill:none;stroke-width:4.5;stroke-linecap:butt;stroke-linejoin:miter;stroke:rgb(0%,0%,0%);stroke-opacity:1;stroke-miterlimit:10;" d="M 98.007812 998.007812 L 1268.007812 998.007812 " transform="matrix(0.1,0,0,-0.1,0,137)"/>
<path style="fill:none;stroke-width:4.5;stroke-linecap:butt;stroke-linejoin:miter;stroke:rgb(0%,0%,0%);stroke-opacity:1;stroke-miterlimit:10;" d="M 98.007812 638.007812 L 1268.007812 638.007812 " transform="matrix(0.1,0,0,-0.1,0,137)"/>
<path style="fill:none;stroke-width:4.5;stroke-linecap:butt;stroke-linejoin:miter;stroke:rgb(0%,0%,0%);stroke-opacity:1;stroke-miterlimit:10;" d="M 98.007812 278.007812 L 1268.007812 278.007812 " transform="matrix(0.1,0,0,-0.1,0,137)"/>
<path style="fill:none;stroke-width:4.5;stroke-linecap:butt;stroke-linejoin:bevel;stroke:rgb(0%,0%,0%);stroke-opacity:1;stroke-miterlimit:10;" d="M 503.007812 143.007812 L 502.382812 141.210938 L 500.585938 137.617188 L 497.617188 132.1875 L 493.984375 123.789062 L 488.59375 113.007812 L 482.617188 101.015625 L 476.015625 88.398438 L 469.414062 75.195312 L 462.1875 62.617188 L 454.414062 50 L 446.601562 38.59375 L 438.789062 28.398438 L 430.390625 19.414062 L 421.40625 12.1875 L 413.007812 8.007812 L 403.984375 6.796875 L 396.210938 9.804688 L 390.195312 15.195312 L 385.390625 23.007812 L 381.210938 32.617188 L 377.617188 42.8125 L 375.195312 54.179688 L 372.8125 65.585938 L 371.015625 76.40625 L 369.804688 85.390625 L 368.59375 91.992188 L 368.007812 96.210938 L 368.007812 98.007812 " transform="matrix(0.1,0,0,-0.1,0,137)"/>
<path style="fill:none;stroke-width:4.5;stroke-linecap:butt;stroke-linejoin:bevel;stroke:rgb(0%,0%,0%);stroke-opacity:1;stroke-miterlimit:10;" d="M 863.007812 143.007812 L 862.382812 141.210938 L 860.585938 137.617188 L 857.617188 132.1875 L 853.984375 123.789062 L 848.59375 113.007812 L 842.617188 101.015625 L 836.015625 88.398438 L 829.414062 75.195312 L 822.1875 62.617188 L 814.414062 50 L 806.601562 38.59375 L 798.789062 28.398438 L 790.390625 19.414062 L 781.40625 12.1875 L 773.007812 8.007812 L 763.984375 6.796875 L 756.210938 9.804688 L 750.195312 15.195312 L 745.390625 23.007812 L 741.210938 32.617188 L 737.617188 42.8125 L 735.195312 54.179688 L 732.8125 65.585938 L 731.015625 76.40625 L 729.804688 85.390625 L 728.59375 91.992188 L 728.007812 96.210938 L 728.007812 98.007812 " transform="matrix(0.1,0,0,-0.1,0,137)"/>
<path style="fill:none;stroke-width:4.5;stroke-linecap:butt;stroke-linejoin:bevel;stroke:rgb(0%,0%,0%);stroke-opacity:1;stroke-miterlimit:10;" d="M 1223.007812 143.007812 L 1222.382812 141.210938 L 1220.585938 137.617188 L 1217.617188 132.1875 L 1213.984375 123.789062 L 1208.59375 113.007812 L 1202.617188 101.015625 L 1196.015625 88.398438 L 1189.414062 75.195312 L 1182.1875 62.617188 L 1174.414062 50 L 1166.601562 38.59375 L 1158.789062 28.398438 L 1150.390625 19.414062 L 1141.40625 12.1875 L 1133.007812 8.007812 L 1123.984375 6.796875 L 1116.210938 9.804688 L 1110.195312 15.195312 L 1105.390625 23.007812 L 1101.210938 32.617188 L 1097.617188 42.8125 L 1095.195312 54.179688 L 1092.8125 65.585938 L 1091.015625 76.40625 L 1089.804688 85.390625 L 1088.59375 91.992188 L 1088.007812 96.210938 L 1088.007812 98.007812 " transform="matrix(0.1,0,0,-0.1,0,137)"/>
<path style="fill:none;stroke-width:4.5;stroke-linecap:butt;stroke-linejoin:bevel;stroke:rgb(0%,0%,0%);stroke-opacity:1;stroke-miterlimit:10;" d="M 143.007812 1223.007812 L 142.382812 1224.804688 L 140.585938 1228.398438 L 137.617188 1233.789062 L 133.984375 1242.1875 L 128.59375 1253.007812 L 122.617188 1265 L 116.015625 1277.617188 L 109.414062 1290.78125 L 102.1875 1303.398438 L 94.414062 1316.015625 L 86.601562 1327.382812 L 78.789062 1337.617188 L 70.390625 1346.601562 L 61.40625 1353.789062 L 53.007812 1358.007812 L 43.984375 1359.21875 L 36.210938 1356.210938 L 30.195312 1350.78125 L 25.390625 1343.007812 L 21.210938 1333.398438 L 17.617188 1323.203125 L 15.195312 1311.796875 L 12.8125 1300.390625 L 11.015625 1289.609375 L 9.804688 1280.585938 L 8.59375 1273.984375 L 8.007812 1269.804688 L 8.007812 1268.007812 " transform="matrix(0.1,0,0,-0.1,0,137)"/>
<path style="fill:none;stroke-width:4.5;stroke-linecap:butt;stroke-linejoin:bevel;stroke:rgb(0%,0%,0%);stroke-opacity:1;stroke-miterlimit:10;" d="M 503.007812 1223.007812 L 502.382812 1224.804688 L 500.585938 1228.398438 L 497.617188 1233.789062 L 493.984375 1242.1875 L 488.59375 1253.007812 L 482.617188 1265 L 476.015625 1277.617188 L 469.414062 1290.78125 L 462.1875 1303.398438 L 454.414062 1316.015625 L 446.601562 1327.382812 L 438.789062 1337.617188 L 430.390625 1346.601562 L 421.40625 1353.789062 L 413.007812 1358.007812 L 403.984375 1359.21875 L 396.210938 1356.210938 L 390.195312 1350.78125 L 385.390625 1343.007812 L 381.210938 1333.398438 L 377.617188 1323.203125 L 375.195312 1311.796875 L 372.8125 1300.390625 L 371.015625 1289.609375 L 369.804688 1280.585938 L 368.59375 1273.984375 L 368.007812 1269.804688 L 368.007812 1268.007812 " transform="matrix(0.1,0,0,-0.1,0,137)"/>
<path style="fill:none;stroke-width:4.5;stroke-linecap:butt;stroke-linejoin:bevel;stroke:rgb(0%,0%,0%);stroke-opacity:1;stroke-miterlimit:10;" d="M 863.007812 1223.007812 L 862.382812 1224.804688 L 860.585938 1228.398438 L 857.617188 1233.789062 L 853.984375 1242.1875 L 848.59375 1253.007812 L 842.617188 1265 L 836.015625 1277.617188 L 829.414062 1290.78125 L 822.1875 1303.398438 L 814.414062 1316.015625 L 806.601562 1327.382812 L 798.789062 1337.617188 L 790.390625 1346.601562 L 781.40625 1353.789062 L 773.007812 1358.007812 L 763.984375 1359.21875 L 756.210938 1356.210938 L 750.195312 1350.78125 L 745.390625 1343.007812 L 741.210938 1333.398438 L 737.617188 1323.203125 L 735.195312 1311.796875 L 732.8125 1300.390625 L 731.015625 1289.609375 L 729.804688 1280.585938 L 728.59375 1273.984375 L 728.007812 1269.804688 L 728.007812 1268.007812 " transform="matrix(0.1,0,0,-0.1,0,137)"/>
<path style="fill:none;stroke-width:4.5;stroke-linecap:butt;stroke-linejoin:bevel;stroke:rgb(0%,0%,0%);stroke-opacity:1;stroke-miterlimit:10;" d="M 1223.007812 1223.007812 L 1222.382812 1224.804688 L 1220.585938 1228.398438 L 1217.617188 1233.789062 L 1213.984375 1242.1875 L 1208.59375 1253.007812 L 1202.617188 1265 L 1196.015625 1277.617188 L 1189.414062 1290.78125 L 1182.1875 1303.398438 L 1174.414062 1316.015625 L 1166.601562 1327.382812 L 1158.789062 1337.617188 L 1150.390625 1346.601562 L 1141.40625 1353.789062 L 1133.007812 1358.007812 L 1123.984375 1359.21875 L 1116.210938 1356.210938 L 1110.195312 1350.78125 L 1105.390625 1343.007812 L 1101.210938 1333.398438 L 1097.617188 1323.203125 L 1095.195312 1311.796875 L 1092.8125 1300.390625 L 1091.015625 1289.609375 L 1089.804688 1280.585938 L 1088.59375 1273.984375 L 1088.007812 1269.804688 L 1088.007812 1268.007812 " transform="matrix(0.1,0,0,-0.1,0,137)"/>
<path style="fill:none;stroke-width:4.5;stroke-linecap:butt;stroke-linejoin:bevel;stroke:rgb(0%,0%,0%);stroke-opacity:1;stroke-miterlimit:10;" d="M 143.007812 143.007812 L 142.382812 141.210938 L 140.585938 137.617188 L 137.617188 132.1875 L 133.984375 123.789062 L 128.59375 113.007812 L 122.617188 101.015625 L 116.015625 88.398438 L 109.414062 75.195312 L 102.1875 62.617188 L 94.414062 50 L 86.601562 38.59375 L 78.789062 28.398438 L 70.390625 19.414062 L 61.40625 12.1875 L 53.007812 8.007812 L 43.984375 6.796875 L 36.210938 9.804688 L 30.195312 15.195312 L 25.390625 23.007812 L 21.210938 32.617188 L 17.617188 42.8125 L 15.195312 54.179688 L 12.8125 65.585938 L 11.015625 76.40625 L 9.804688 85.390625 L 8.59375 91.992188 L 8.007812 96.210938 L 8.007812 98.007812 " transform="matrix(0.1,0,0,-0.1,0,137)"/>
<path style="fill:none;stroke-width:4.5;stroke-linecap:butt;stroke-linejoin:bevel;stroke:rgb(0%,0%,0%);stroke-opacity:1;stroke-miterlimit:10;" d="M 143.007812 503.007812 L 141.210938 503.59375 L 137.617188 505.390625 L 132.1875 508.398438 L 123.789062 511.992188 L 113.007812 517.382812 L 101.015625 523.398438 L 88.398438 530 L 75.195312 536.601562 L 62.617188 543.789062 L 50 551.601562 L 38.59375 559.414062 L 28.398438 567.1875 L 19.414062 575.585938 L 12.1875 584.609375 L 8.007812 593.007812 L 6.796875 601.992188 L 9.804688 609.804688 L 15.195312 615.820312 L 23.007812 620.585938 L 32.617188 624.804688 L 42.8125 628.398438 L 54.179688 630.820312 L 65.585938 633.203125 L 76.40625 635 L 85.390625 636.210938 L 91.992188 637.382812 L 96.210938 638.007812 L 98.007812 638.007812 " transform="matrix(0.1,0,0,-0.1,0,137)"/>
<path style="fill:none;stroke-width:4.5;stroke-linecap:butt;stroke-linejoin:bevel;stroke:rgb(0%,0%,0%);stroke-opacity:1;stroke-miterlimit:10;" d="M 143.007812 863.007812 L 141.210938 863.59375 L 137.617188 865.390625 L 132.1875 868.398438 L 123.789062 871.992188 L 113.007812 877.382812 L 101.015625 883.398438 L 88.398438 890 L 75.195312 896.601562 L 62.617188 903.789062 L 50 911.601562 L 38.59375 919.414062 L 28.398438 927.1875 L 19.414062 935.585938 L 12.1875 944.609375 L 8.007812 953.007812 L 6.796875 961.992188 L 9.804688 969.804688 L 15.195312 975.820312 L 23.007812 980.585938 L 32.617188 984.804688 L 42.8125 988.398438 L 54.179688 990.820312 L 65.585938 993.203125 L 76.40625 995 L 85.390625 996.210938 L 91.992188 997.382812 L 96.210938 998.007812 L 98.007812 998.007812 " transform="matrix(0.1,0,0,-0.1,0,137)"/>
<path style="fill:none;stroke-width:4.5;stroke-linecap:butt;stroke-linejoin:bevel;stroke:rgb(0%,0%,0%);stroke-opacity:1;stroke-miterlimit:10;" d="M 143.007812 1223.007812 L 141.210938 1223.59375 L 137.617188 1225.390625 L 132.1875 1228.398438 L 123.789062 1231.992188 L 113.007812 1237.382812 L 101.015625 1243.398438 L 88.398438 1250 L 75.195312 1256.601562 L 62.617188 1263.789062 L 50 1271.601562 L 38.59375 1279.414062 L 28.398438 1287.1875 L 19.414062 1295.585938 L 12.1875 1304.609375 L 8.007812 1313.007812 L 6.796875 1321.992188 L 9.804688 1329.804688 L 15.195312 1335.78125 L 23.007812 1340.585938 L 32.617188 1344.804688 L 42.8125 1348.398438 L 54.179688 1350.78125 L 65.585938 1353.203125 L 76.40625 1355 L 85.390625 1356.210938 L 91.992188 1357.382812 L 96.210938 1358.007812 L 98.007812 1358.007812 " transform="matrix(0.1,0,0,-0.1,0,137)"/>
<path style="fill:none;stroke-width:4.5;stroke-linecap:butt;stroke-linejoin:bevel;stroke:rgb(0%,0%,0%);stroke-opacity:1;stroke-miterlimit:10;" d="M 143.007812 143.007812 L 141.210938 143.59375 L 137.617188 145.390625 L 132.1875 148.398438 L 123.789062 151.992188 L 113.007812 157.382812 L 101.015625 163.398438 L 88.398438 170 L 75.195312 176.601562 L 62.617188 183.789062 L 50 191.601562 L 38.59375 199.414062 L 28.398438 207.1875 L 19.414062 215.585938 L 12.1875 224.609375 L 8.007812 233.007812 L 6.796875 241.992188 L 9.804688 249.804688 L 15.195312 255.820312 L 23.007812 260.585938 L 32.617188 264.804688 L 42.8125 268.398438 L 54.179688 270.820312 L 65.585938 273.203125 L 76.40625 275 L 85.390625 276.210938 L 91.992188 277.382812 L 96.210938 278.007812 L 98.007812 278.007812 " transform="matrix(0.1,0,0,-0.1,0,137)"/>
<path style="fill:none;stroke-width:4.5;stroke-linecap:butt;stroke-linejoin:bevel;stroke:rgb(0%,0%,0%);stroke-opacity:1;stroke-miterlimit:10;" d="M 1223.007812 143.007812 L 1224.804688 143.59375 L 1228.398438 145.390625 L 1233.789062 148.398438 L 1242.1875 151.992188 L 1253.007812 157.382812 L 1265 163.398438 L 1277.617188 170 L 1290.78125 176.601562 L 1303.398438 183.789062 L 1316.015625 191.601562 L 1327.382812 199.414062 L 1337.617188 207.1875 L 1346.601562 215.585938 L 1353.789062 224.609375 L 1358.007812 233.007812 L 1359.21875 241.992188 L 1356.210938 249.804688 L 1350.78125 255.820312 L 1343.007812 260.585938 L 1333.398438 264.804688 L 1323.203125 268.398438 L 1311.796875 270.820312 L 1300.390625 273.203125 L 1289.609375 275 L 1280.585938 276.210938 L 1273.984375 277.382812 L 1269.804688 278.007812 L 1268.007812 278.007812 " transform="matrix(0.1,0,0,-0.1,0,137)"/>
<path style="fill:none;stroke-width:4.5;stroke-linecap:butt;stroke-linejoin:bevel;stroke:rgb(0%,0%,0%);stroke-opacity:1;stroke-miterlimit:10;" d="M 1223.007812 503.007812 L 1224.804688 503.59375 L 1228.398438 505.390625 L 1233.789062 508.398438 L 1242.1875 511.992188 L 1253.007812 517.382812 L 1265 523.398438 L 1277.617188 530 L 1290.78125 536.601562 L 1303.398438 543.789062 L 1316.015625 551.601562 L 1327.382812 559.414062 L 1337.617188 567.1875 L 1346.601562 575.585938 L 1353.789062 584.609375 L 1358.007812 593.007812 L 1359.21875 601.992188 L 1356.210938 609.804688 L 1350.78125 615.820312 L 1343.007812 620.585938 L 1333.398438 624.804688 L 1323.203125 628.398438 L 1311.796875 630.820312 L 1300.390625 633.203125 L 1289.609375 635 L 1280.585938 636.210938 L 1273.984375 637.382812 L 1269.804688 638.007812 L 1268.007812 638.007812 " transform="matrix(0.1,0,0,-0.1,0,137)"/>
<path style="fill:none;stroke-width:4.5;stroke-linecap:butt;stroke-linejoin:bevel;stroke:rgb(0%,0%,0%);stroke-opacity:1;stroke-miterlimit:10;" d="M 1223.007812 863.007812 L 1224.804688 863.59375 L 1228.398438 865.390625 L 1233.789062 868.398438 L 1242.1875 871.992188 L 1253.007812 877.382812 L 1265 883.398438 L 1277.617188 890 L 1290.78125 896.601562 L 1303.398438 903.789062 L 1316.015625 911.601562 L 1327.382812 919.414062 L 1337.617188 927.1875 L 1346.601562 935.585938 L 1353.789062 944.609375 L 1358.007812 953.007812 L 1359.21875 961.992188 L 1356.210938 969.804688 L 1350.78125 975.820312 L 1343.007812 980.585938 L 1333.398438 984.804688 L 1323.203125 988.398438 L 1311.796875 990.820312 L 1300.390625 993.203125 L 1289.609375 995 L 1280.585938 996.210938 L 1273.984375 997.382812 L 1269.804688 998.007812 L 1268.007812 998.007812 " transform="matrix(0.1,0,0,-0.1,0,137)"/>
<path style="fill:none;stroke-width:4.5;stroke-linecap:butt;stroke-linejoin:miter;stroke:rgb(0%,0%,0%);stroke-opacity:1;stroke-miterlimit:10;" d="M 143.007812 1268.007812 C 118.164062 1268.007812 98.007812 1247.851562 98.007812 1223.007812 C 98.007812 1198.164062 118.164062 1178.007812 143.007812 1178.007812 C 167.851562 1178.007812 188.007812 1198.164062 188.007812 1223.007812 C 188.007812 1247.851562 167.851562 1268.007812 143.007812 1268.007812 Z M 143.007812 1268.007812 " transform="matrix(0.1,0,0,-0.1,0,137)"/>
</g>
</svg>
